<svg xmlns="http://www.w3.org/2000/svg" xmlns:xlink="http://www.w3.org/1999/xlink" width="500" zoomAndPan="magnify" viewBox="0 0 375 374.999991" height="500" preserveAspectRatio="xMidYMid meet" version="1.0"><defs><g/><clipPath id="843da8093a"><path d="M 160.988281 115.847656 L 214.238281 115.847656 L 214.238281 217.847656 L 160.988281 217.847656 Z M 160.988281 115.847656 " clip-rule="nonzero"/></clipPath><clipPath id="8c40b71263"><path d="M 243.449219 115.847656 L 256.761719 115.847656 L 256.761719 129.160156 L 243.449219 129.160156 Z M 243.449219 115.847656 " clip-rule="nonzero"/></clipPath><clipPath id="1f54c1e093"><path d="M 250.105469 115.847656 C 246.429688 115.847656 243.449219 118.828125 243.449219 122.503906 C 243.449219 126.179688 246.429688 129.160156 250.105469 129.160156 C 253.78125 129.160156 256.761719 126.179688 256.761719 122.503906 C 256.761719 118.828125 253.78125 115.847656 250.105469 115.847656 " clip-rule="nonzero"/></clipPath><clipPath id="5f28e6f833"><path d="M 133.777344 209.863281 L 141.492188 209.863281 L 141.492188 217.574219 L 133.777344 217.574219 Z M 133.777344 209.863281 " clip-rule="nonzero"/></clipPath><clipPath id="0a9ea6ced9"><path d="M 137.636719 209.863281 C 135.503906 209.863281 133.777344 211.589844 133.777344 213.71875 C 133.777344 215.847656 135.503906 217.574219 137.636719 217.574219 C 139.765625 217.574219 141.492188 215.847656 141.492188 213.71875 C 141.492188 211.589844 139.765625 209.863281 137.636719 209.863281 " clip-rule="nonzero"/></clipPath></defs><g clip-path="url(#843da8093a)"><path fill="#ff66c4" d="M 162.28125 140.03125 L 162.28125 145.140625 L 179.625 134.28125 C 179.902344 134.105469 180.273438 134.167969 180.476562 134.429688 L 185.628906 141.042969 L 206.46875 130.074219 C 206.722656 129.941406 207.039062 129.992188 207.238281 130.203125 L 212.527344 135.839844 C 210.328125 125.105469 199.902344 117.1875 187.617188 117.1875 C 173.648438 117.1875 162.28125 127.433594 162.28125 140.03125 Z M 160.996094 146.347656 C 160.992188 146.332031 160.992188 146.320312 160.992188 146.304688 L 160.992188 140.03125 C 160.992188 126.722656 172.933594 115.898438 187.617188 115.898438 C 201.113281 115.898438 212.480469 125.042969 214.058594 137.171875 C 214.105469 137.523438 213.859375 137.84375 213.511719 137.890625 C 213.25 138.105469 212.867188 138.085938 212.632812 137.835938 L 206.632812 131.445312 L 177.316406 146.875 C 177.222656 146.925781 177.117188 146.949219 177.015625 146.949219 C 176.785156 146.949219 176.558594 146.824219 176.445312 146.605469 C 176.277344 146.289062 176.398438 145.898438 176.714844 145.734375 L 184.46875 141.652344 L 179.816406 135.679688 L 161.980469 146.847656 C 161.949219 146.867188 161.921875 146.882812 161.890625 146.894531 C 161.886719 146.898438 161.878906 146.898438 161.871094 146.902344 C 161.84375 146.914062 161.8125 146.921875 161.78125 146.929688 C 161.769531 146.933594 161.761719 146.933594 161.75 146.9375 C 161.714844 146.945312 161.675781 146.949219 161.636719 146.949219 C 161.597656 146.949219 161.558594 146.945312 161.519531 146.9375 C 161.511719 146.933594 161.503906 146.933594 161.496094 146.933594 C 161.460938 146.925781 161.425781 146.914062 161.390625 146.898438 C 161.382812 146.898438 161.378906 146.894531 161.371094 146.890625 C 161.34375 146.878906 161.3125 146.863281 161.285156 146.84375 C 161.28125 146.839844 161.277344 146.835938 161.269531 146.835938 C 161.242188 146.8125 161.210938 146.789062 161.183594 146.765625 C 161.179688 146.757812 161.175781 146.753906 161.171875 146.75 C 161.148438 146.726562 161.128906 146.703125 161.113281 146.675781 C 161.105469 146.671875 161.101562 146.664062 161.097656 146.65625 C 161.09375 146.652344 161.089844 146.648438 161.089844 146.644531 C 161.082031 146.632812 161.078125 146.621094 161.070312 146.605469 C 161.058594 146.585938 161.046875 146.5625 161.035156 146.539062 C 161.03125 146.523438 161.023438 146.5 161.019531 146.480469 C 161.011719 146.460938 161.007812 146.441406 161.003906 146.421875 C 160.996094 146.394531 160.996094 146.371094 160.996094 146.347656 Z M 208.09375 160.210938 C 205.726562 160.324219 203.414062 160.828125 201.21875 161.71875 C 201.214844 161.71875 201.214844 161.71875 201.210938 161.722656 C 200.960938 161.820312 200.714844 161.929688 200.472656 162.039062 C 200.390625 162.074219 200.3125 162.113281 200.230469 162.152344 C 200.066406 162.230469 199.902344 162.304688 199.738281 162.386719 C 199.644531 162.433594 199.550781 162.484375 199.457031 162.535156 C 199.3125 162.609375 199.164062 162.683594 199.019531 162.761719 C 198.921875 162.816406 198.824219 162.875 198.726562 162.929688 C 198.589844 163.007812 198.453125 163.085938 198.320312 163.167969 C 198.21875 163.226562 198.117188 163.289062 198.019531 163.355469 C 197.890625 163.433594 197.761719 163.515625 197.632812 163.597656 C 197.53125 163.664062 197.433594 163.730469 197.335938 163.800781 C 197.210938 163.882812 197.085938 163.96875 196.964844 164.054688 C 196.867188 164.125 196.769531 164.199219 196.671875 164.273438 C 196.550781 164.359375 196.433594 164.449219 196.316406 164.539062 C 196.21875 164.613281 196.121094 164.691406 196.023438 164.769531 C 195.957031 164.824219 195.890625 164.878906 195.824219 164.933594 C 195.824219 164.941406 195.824219 164.953125 195.828125 164.960938 C 195.835938 165.027344 195.839844 165.089844 195.847656 165.15625 C 195.855469 165.234375 195.863281 165.308594 195.871094 165.386719 C 195.875 165.453125 195.878906 165.519531 195.882812 165.582031 C 195.890625 165.660156 195.894531 165.734375 195.898438 165.8125 C 195.902344 165.878906 195.902344 165.945312 195.90625 166.015625 C 195.910156 166.089844 195.910156 166.167969 195.914062 166.242188 C 195.914062 166.3125 195.914062 166.378906 195.914062 166.449219 C 195.914062 166.523438 195.914062 166.601562 195.910156 166.675781 C 195.910156 166.746094 195.90625 166.816406 195.90625 166.886719 C 195.902344 166.960938 195.898438 167.039062 195.894531 167.117188 C 195.890625 167.1875 195.886719 167.257812 195.882812 167.328125 C 195.875 167.402344 195.871094 167.480469 195.863281 167.558594 C 195.855469 167.628906 195.847656 167.699219 195.839844 167.769531 C 195.832031 167.847656 195.824219 167.925781 195.816406 168.003906 C 195.808594 168.078125 195.796875 168.148438 195.789062 168.21875 C 195.777344 168.296875 195.765625 168.378906 195.753906 168.457031 C 195.742188 168.527344 195.730469 168.601562 195.71875 168.675781 C 195.703125 168.753906 195.6875 168.832031 195.675781 168.910156 C 195.660156 168.984375 195.644531 169.058594 195.632812 169.132812 C 195.613281 169.214844 195.597656 169.292969 195.582031 169.375 C 195.566406 169.449219 195.546875 169.523438 195.53125 169.597656 C 195.511719 169.675781 195.492188 169.757812 195.472656 169.839844 C 195.453125 169.914062 195.433594 169.988281 195.414062 170.066406 C 195.390625 170.144531 195.367188 170.226562 195.347656 170.308594 C 195.324219 170.386719 195.300781 170.460938 195.28125 170.539062 C 195.253906 170.621094 195.230469 170.703125 195.203125 170.789062 C 195.179688 170.863281 195.15625 170.941406 195.132812 171.019531 C 195.101562 171.101562 195.074219 171.1875 195.046875 171.269531 C 195.019531 171.347656 194.992188 171.425781 194.964844 171.503906 C 194.9375 171.589844 194.90625 171.671875 194.875 171.757812 C 194.84375 171.835938 194.816406 171.917969 194.785156 171.996094 C 194.753906 172.082031 194.71875 172.167969 194.683594 172.253906 C 194.652344 172.335938 194.621094 172.414062 194.585938 172.492188 C 194.550781 172.582031 194.515625 172.667969 194.476562 172.757812 C 194.445312 172.835938 194.410156 172.917969 194.375 172.996094 C 194.335938 173.085938 194.296875 173.175781 194.257812 173.265625 C 194.21875 173.347656 194.183594 173.425781 194.144531 173.507812 C 194.105469 173.597656 194.058594 173.691406 194.015625 173.78125 C 193.980469 173.863281 193.941406 173.945312 193.898438 174.027344 C 193.855469 174.117188 193.808594 174.210938 193.761719 174.304688 C 193.71875 174.386719 193.679688 174.46875 193.636719 174.550781 C 193.589844 174.644531 193.539062 174.738281 193.488281 174.835938 C 193.445312 174.917969 193.402344 175 193.359375 175.085938 C 193.308594 175.179688 193.253906 175.277344 193.199219 175.371094 C 193.15625 175.457031 193.109375 175.539062 193.0625 175.625 C 193.007812 175.722656 192.953125 175.820312 192.894531 175.921875 C 192.847656 176.003906 192.800781 176.089844 192.75 176.171875 C 192.691406 176.273438 192.632812 176.375 192.574219 176.472656 C 192.523438 176.558594 192.472656 176.644531 192.421875 176.730469 C 192.359375 176.832031 192.296875 176.933594 192.234375 177.035156 C 192.179688 177.121094 192.128906 177.207031 192.074219 177.292969 C 192.007812 177.398438 191.941406 177.503906 191.875 177.613281 C 191.820312 177.695312 191.765625 177.78125 191.710938 177.867188 C 191.640625 177.976562 191.570312 178.085938 191.5 178.195312 C 191.441406 178.277344 191.386719 178.363281 191.332031 178.449219 C 191.257812 178.5625 191.179688 178.675781 191.101562 178.789062 C 191.046875 178.875 190.992188 178.957031 190.933594 179.039062 C 190.851562 179.160156 190.765625 179.285156 190.679688 179.410156 C 190.625 179.484375 190.574219 179.5625 190.519531 179.636719 C 190.421875 179.777344 190.324219 179.917969 190.222656 180.054688 C 190.179688 180.121094 190.132812 180.183594 190.089844 180.246094 C 189.941406 180.453125 189.792969 180.660156 189.640625 180.867188 C 189.523438 181.023438 189.410156 181.179688 189.289062 181.339844 C 189.253906 181.390625 189.210938 181.441406 189.175781 181.492188 C 189.089844 181.601562 189.007812 181.714844 188.921875 181.828125 C 188.921875 181.828125 188.917969 181.832031 188.917969 181.832031 C 191.5625 181.625 194.105469 180.925781 196.480469 179.753906 C 198.800781 178.609375 200.871094 177.054688 202.632812 175.132812 C 206.398438 171.027344 208.324219 165.75 208.09375 160.210938 Z M 186.195312 181.824219 C 186.113281 181.710938 186.03125 181.601562 185.949219 181.492188 C 185.910156 181.4375 185.871094 181.382812 185.832031 181.332031 C 185.703125 181.160156 185.578125 180.988281 185.457031 180.820312 C 185.308594 180.613281 185.164062 180.410156 185.023438 180.207031 C 184.976562 180.144531 184.933594 180.082031 184.890625 180.019531 C 184.792969 179.882812 184.699219 179.742188 184.605469 179.605469 C 184.550781 179.53125 184.5 179.453125 184.445312 179.375 C 184.363281 179.253906 184.28125 179.132812 184.203125 179.011719 C 184.148438 178.929688 184.09375 178.851562 184.039062 178.769531 C 183.964844 178.652344 183.890625 178.539062 183.816406 178.429688 C 183.761719 178.34375 183.710938 178.257812 183.65625 178.175781 C 183.585938 178.066406 183.515625 177.957031 183.445312 177.851562 C 183.394531 177.765625 183.339844 177.679688 183.289062 177.597656 C 183.222656 177.492188 183.15625 177.382812 183.09375 177.28125 C 183.042969 177.195312 182.992188 177.109375 182.941406 177.027344 C 182.878906 176.921875 182.816406 176.820312 182.757812 176.71875 C 182.707031 176.632812 182.660156 176.546875 182.609375 176.464844 C 182.550781 176.363281 182.492188 176.261719 182.4375 176.164062 C 182.386719 176.078125 182.34375 175.996094 182.296875 175.910156 C 182.238281 175.8125 182.183594 175.714844 182.132812 175.613281 C 182.085938 175.53125 182.042969 175.449219 181.996094 175.367188 C 181.945312 175.269531 181.894531 175.171875 181.84375 175.074219 C 181.796875 174.992188 181.757812 174.910156 181.714844 174.828125 C 181.664062 174.730469 181.617188 174.636719 181.570312 174.539062 C 181.527344 174.460938 181.488281 174.378906 181.449219 174.296875 C 181.402344 174.203125 181.355469 174.109375 181.3125 174.015625 C 181.273438 173.933594 181.238281 173.855469 181.199219 173.773438 C 181.15625 173.679688 181.113281 173.585938 181.070312 173.492188 C 181.035156 173.414062 181 173.335938 180.964844 173.257812 C 180.925781 173.164062 180.882812 173.074219 180.84375 172.980469 C 180.8125 172.902344 180.78125 172.824219 180.746094 172.746094 C 180.710938 172.65625 180.671875 172.566406 180.636719 172.476562 C 180.605469 172.398438 180.574219 172.320312 180.542969 172.242188 C 180.507812 172.152344 180.476562 172.0625 180.441406 171.976562 C 180.414062 171.898438 180.386719 171.820312 180.359375 171.746094 C 180.324219 171.65625 180.292969 171.570312 180.265625 171.480469 C 180.238281 171.40625 180.210938 171.328125 180.1875 171.253906 C 180.15625 171.167969 180.128906 171.078125 180.101562 170.992188 C 180.078125 170.917969 180.054688 170.84375 180.03125 170.769531 C 180.003906 170.683594 179.980469 170.597656 179.957031 170.511719 C 179.933594 170.4375 179.914062 170.363281 179.890625 170.289062 C 179.867188 170.207031 179.847656 170.121094 179.824219 170.035156 C 179.804688 169.964844 179.785156 169.890625 179.769531 169.816406 C 179.746094 169.734375 179.726562 169.648438 179.707031 169.566406 C 179.691406 169.492188 179.675781 169.421875 179.660156 169.347656 C 179.640625 169.265625 179.625 169.183594 179.609375 169.101562 C 179.59375 169.03125 179.578125 168.960938 179.566406 168.886719 C 179.550781 168.804688 179.535156 168.722656 179.523438 168.640625 C 179.511719 168.570312 179.5 168.5 179.488281 168.429688 C 179.476562 168.351562 179.464844 168.269531 179.453125 168.1875 C 179.445312 168.121094 179.433594 168.050781 179.425781 167.980469 C 179.414062 167.898438 179.40625 167.820312 179.398438 167.738281 C 179.390625 167.671875 179.382812 167.601562 179.378906 167.535156 C 179.371094 167.457031 179.367188 167.375 179.359375 167.296875 C 179.355469 167.230469 179.351562 167.160156 179.347656 167.09375 C 179.34375 167.015625 179.339844 166.933594 179.335938 166.855469 C 179.332031 166.789062 179.332031 166.722656 179.328125 166.660156 C 179.328125 166.578125 179.328125 166.5 179.328125 166.421875 C 179.328125 166.359375 179.328125 166.292969 179.328125 166.226562 C 179.328125 166.148438 179.332031 166.070312 179.332031 165.992188 C 179.335938 165.929688 179.335938 165.863281 179.339844 165.800781 C 179.34375 165.722656 179.351562 165.644531 179.355469 165.570312 C 179.359375 165.503906 179.363281 165.441406 179.367188 165.378906 C 179.375 165.300781 179.382812 165.222656 179.390625 165.144531 C 179.398438 165.085938 179.40625 165.023438 179.414062 164.960938 C 179.414062 164.953125 179.414062 164.945312 179.414062 164.9375 C 179.347656 164.878906 179.277344 164.824219 179.207031 164.769531 C 179.109375 164.6875 179.007812 164.609375 178.910156 164.53125 C 178.789062 164.441406 178.671875 164.351562 178.550781 164.261719 C 178.449219 164.1875 178.347656 164.109375 178.246094 164.039062 C 178.121094 163.949219 177.996094 163.863281 177.871094 163.78125 C 177.769531 163.710938 177.667969 163.640625 177.5625 163.574219 C 177.433594 163.488281 177.304688 163.40625 177.171875 163.328125 C 177.070312 163.261719 176.96875 163.199219 176.863281 163.136719 C 176.726562 163.054688 176.589844 162.976562 176.453125 162.898438 C 176.351562 162.84375 176.25 162.78125 176.148438 162.726562 C 176 162.648438 175.855469 162.574219 175.707031 162.496094 C 175.609375 162.449219 175.511719 162.394531 175.414062 162.347656 C 175.25 162.265625 175.082031 162.1875 174.914062 162.113281 C 174.832031 162.074219 174.75 162.03125 174.667969 161.996094 C 174.414062 161.882812 174.160156 161.777344 173.902344 161.671875 C 171.742188 160.8125 169.472656 160.320312 167.140625 160.210938 C 166.910156 165.75 168.835938 171.027344 172.601562 175.132812 C 174.3125 177 176.316406 178.523438 178.554688 179.652344 C 180.945312 180.863281 183.515625 181.59375 186.195312 181.824219 Z M 174.898438 160.691406 C 174.960938 160.71875 175.027344 160.746094 175.089844 160.777344 C 175.171875 160.8125 175.253906 160.847656 175.335938 160.886719 C 175.519531 160.96875 175.699219 161.050781 175.878906 161.140625 C 175.945312 161.175781 176.015625 161.207031 176.085938 161.238281 C 176.328125 161.363281 176.566406 161.484375 176.804688 161.613281 C 176.84375 161.636719 176.882812 161.660156 176.925781 161.683594 C 177.121094 161.792969 177.316406 161.90625 177.511719 162.023438 C 177.585938 162.066406 177.664062 162.113281 177.738281 162.160156 C 177.902344 162.257812 178.066406 162.363281 178.226562 162.46875 C 178.300781 162.515625 178.371094 162.5625 178.441406 162.609375 C 178.644531 162.742188 178.84375 162.878906 179.039062 163.019531 C 179.0625 163.039062 179.089844 163.054688 179.113281 163.074219 C 179.308594 163.210938 179.5 163.355469 179.6875 163.5 C 179.691406 163.476562 179.699219 163.453125 179.707031 163.429688 C 179.753906 163.246094 179.804688 163.066406 179.859375 162.886719 C 179.859375 162.878906 179.863281 162.875 179.863281 162.867188 C 179.917969 162.695312 179.976562 162.523438 180.035156 162.355469 C 180.050781 162.308594 180.066406 162.265625 180.082031 162.222656 C 180.144531 162.050781 180.207031 161.882812 180.277344 161.714844 C 180.28125 161.707031 180.285156 161.695312 180.289062 161.6875 C 180.351562 161.527344 180.421875 161.367188 180.488281 161.214844 C 180.507812 161.171875 180.527344 161.132812 180.542969 161.089844 C 180.617188 160.929688 180.691406 160.773438 180.765625 160.617188 C 180.773438 160.605469 180.777344 160.59375 180.785156 160.582031 C 180.855469 160.433594 180.929688 160.289062 181.003906 160.144531 C 181.023438 160.105469 181.042969 160.070312 181.0625 160.03125 C 181.144531 159.882812 181.222656 159.734375 181.304688 159.589844 C 181.308594 159.578125 181.3125 159.570312 181.320312 159.558594 C 181.398438 159.417969 181.476562 159.28125 181.554688 159.144531 C 181.5625 159.128906 181.570312 159.113281 181.582031 159.097656 C 180.132812 157.777344 178.523438 156.652344 176.785156 155.742188 C 175.964844 157.3125 175.332031 158.972656 174.898438 160.691406 Z M 183.984375 157.640625 C 183.625 158.210938 183.285156 158.753906 182.953125 159.308594 C 182.535156 160.007812 182.125 160.738281 181.765625 161.515625 C 181.304688 162.511719 180.929688 163.589844 180.742188 164.769531 C 180.660156 165.28125 180.617188 165.804688 180.617188 166.339844 C 180.601562 169.023438 181.570312 172.042969 183.582031 175.574219 C 183.683594 175.75 183.785156 175.925781 183.890625 176.105469 C 184.105469 176.464844 184.328125 176.828125 184.558594 177.195312 C 185.140625 178.117188 185.789062 179.074219 186.503906 180.066406 C 186.65625 180.273438 186.808594 180.484375 186.964844 180.695312 C 187.011719 180.757812 187.058594 180.820312 187.105469 180.882812 C 187.226562 181.046875 187.347656 181.207031 187.472656 181.371094 C 187.5 181.410156 187.53125 181.449219 187.558594 181.488281 C 187.664062 181.347656 187.769531 181.214844 187.871094 181.082031 C 187.894531 181.046875 187.921875 181.011719 187.949219 180.980469 C 188.035156 180.863281 188.117188 180.75 188.203125 180.640625 C 188.230469 180.601562 188.261719 180.5625 188.289062 180.523438 C 188.394531 180.382812 188.496094 180.242188 188.597656 180.105469 C 188.746094 179.90625 188.886719 179.707031 189.027344 179.511719 C 192.667969 174.4375 194.480469 170.316406 194.609375 166.773438 C 194.617188 166.628906 194.617188 166.484375 194.617188 166.34375 C 194.617188 166.210938 194.617188 166.074219 194.609375 165.941406 C 194.59375 165.542969 194.554688 165.148438 194.496094 164.765625 C 194.1875 162.785156 193.339844 161.074219 192.4375 159.519531 C 192.378906 159.414062 192.316406 159.3125 192.257812 159.207031 C 191.953125 158.699219 191.644531 158.195312 191.316406 157.664062 C 189.964844 155.476562 188.496094 153.09375 187.683594 150.066406 C 186.847656 153.085938 185.355469 155.460938 183.984375 157.640625 Z M 193.628906 159.003906 C 193.640625 159.023438 193.652344 159.042969 193.664062 159.058594 C 193.738281 159.195312 193.8125 159.328125 193.890625 159.464844 C 193.902344 159.484375 193.914062 159.507812 193.925781 159.53125 C 194.011719 159.683594 194.09375 159.835938 194.171875 159.988281 C 194.191406 160.027344 194.210938 160.0625 194.230469 160.101562 C 194.304688 160.242188 194.375 160.386719 194.449219 160.53125 C 194.457031 160.550781 194.464844 160.570312 194.476562 160.589844 C 194.554688 160.746094 194.628906 160.910156 194.699219 161.070312 C 194.71875 161.113281 194.738281 161.152344 194.753906 161.191406 C 194.820312 161.34375 194.886719 161.5 194.953125 161.65625 C 194.957031 161.671875 194.964844 161.6875 194.96875 161.703125 C 195.039062 161.871094 195.101562 162.042969 195.164062 162.214844 C 195.179688 162.257812 195.195312 162.300781 195.210938 162.34375 C 195.269531 162.511719 195.324219 162.679688 195.375 162.847656 C 195.378906 162.859375 195.382812 162.871094 195.386719 162.882812 C 195.4375 163.0625 195.488281 163.242188 195.535156 163.425781 C 195.542969 163.449219 195.546875 163.472656 195.554688 163.496094 C 195.734375 163.355469 195.917969 163.21875 196.101562 163.085938 C 196.109375 163.078125 196.117188 163.074219 196.125 163.070312 C 196.332031 162.917969 196.546875 162.773438 196.761719 162.628906 C 196.828125 162.585938 196.894531 162.539062 196.964844 162.496094 C 197.125 162.390625 197.285156 162.289062 197.449219 162.1875 C 197.523438 162.144531 197.59375 162.097656 197.667969 162.054688 C 197.855469 161.941406 198.046875 161.832031 198.238281 161.722656 C 198.28125 161.699219 198.320312 161.675781 198.363281 161.652344 C 198.59375 161.527344 198.828125 161.402344 199.066406 161.28125 C 199.132812 161.25 199.195312 161.21875 199.261719 161.1875 C 199.4375 161.097656 199.617188 161.011719 199.796875 160.929688 C 199.878906 160.894531 199.957031 160.855469 200.035156 160.824219 C 200.097656 160.792969 200.160156 160.765625 200.222656 160.738281 C 199.789062 159.003906 199.152344 157.328125 198.320312 155.742188 C 196.625 156.628906 195.050781 157.722656 193.628906 159.003906 Z M 203.585938 176.003906 C 201.714844 178.042969 199.519531 179.695312 197.054688 180.910156 C 194.417969 182.207031 191.589844 182.960938 188.648438 183.144531 C 188.519531 183.152344 188.390625 183.160156 188.261719 183.164062 L 188.261719 209.371094 C 188.261719 209.726562 187.972656 210.015625 187.617188 210.015625 C 187.261719 210.015625 186.972656 209.726562 186.972656 209.371094 L 186.972656 183.167969 C 186.800781 183.15625 186.628906 183.148438 186.453125 183.136719 C 183.472656 182.929688 180.621094 182.144531 177.972656 180.804688 C 175.59375 179.601562 173.464844 177.988281 171.648438 176.003906 C 167.503906 171.480469 165.457031 165.621094 165.890625 159.503906 C 165.914062 159.160156 166.199219 158.902344 166.542969 158.902344 C 169 158.945312 171.398438 159.386719 173.691406 160.214844 C 174.203125 158.246094 174.960938 156.351562 175.953125 154.570312 C 176.121094 154.273438 176.492188 154.15625 176.800781 154.304688 C 178.785156 155.273438 180.617188 156.507812 182.257812 157.972656 C 182.46875 157.632812 182.683594 157.289062 182.890625 156.953125 C 184.929688 153.710938 187.035156 150.359375 187.058594 145.144531 C 187.058594 144.789062 187.351562 144.503906 187.703125 144.503906 C 188.0625 144.503906 188.347656 144.792969 188.347656 145.148438 C 188.347656 145.148438 188.347656 145.148438 188.347656 145.152344 C 188.328125 150.363281 190.40625 153.730469 192.417969 156.988281 C 192.59375 157.28125 192.777344 157.578125 192.960938 157.875 C 194.574219 156.453125 196.367188 155.253906 198.308594 154.304688 C 198.617188 154.15625 198.988281 154.273438 199.15625 154.570312 C 200.15625 156.363281 200.917969 158.273438 201.429688 160.253906 C 203.757812 159.402344 206.195312 158.945312 208.691406 158.902344 C 209.035156 158.898438 209.320312 159.160156 209.34375 159.503906 C 209.777344 165.621094 207.734375 171.480469 203.585938 176.003906 Z M 176.808594 188.683594 C 175.496094 188.21875 174.085938 187.722656 172.699219 186.851562 C 173.246094 188.390625 173.425781 189.875 173.589844 191.253906 C 174.082031 195.359375 174.472656 198.625 184.109375 201.074219 C 183.816406 191.148438 180.710938 190.058594 176.808594 188.683594 Z M 177.238281 187.464844 C 181.367188 188.921875 185.265625 190.296875 185.417969 201.894531 C 185.417969 202.089844 185.328125 202.28125 185.175781 202.40625 C 185.058594 202.496094 184.917969 202.546875 184.769531 202.546875 C 184.722656 202.546875 184.671875 202.539062 184.621094 202.527344 C 173.316406 199.847656 172.828125 195.75 172.308594 191.40625 C 172.03125 189.089844 171.742188 186.691406 169.765625 184.226562 C 169.667969 184.105469 169.625 183.964844 169.625 183.824219 C 169.625 183.632812 169.707031 183.445312 169.867188 183.320312 C 170.144531 183.097656 170.550781 183.140625 170.773438 183.421875 C 172.75 185.886719 175.03125 186.691406 177.238281 187.464844 Z M 202.539062 186.851562 C 201.152344 187.722656 199.738281 188.21875 198.425781 188.683594 C 194.523438 190.058594 191.417969 191.148438 191.125 201.074219 C 200.765625 198.625 201.152344 195.359375 201.644531 191.253906 C 201.808594 189.875 201.988281 188.390625 202.539062 186.851562 Z M 205.371094 183.320312 C 205.527344 183.445312 205.613281 183.632812 205.613281 183.824219 C 205.613281 183.964844 205.566406 184.105469 205.46875 184.226562 C 203.492188 186.691406 203.203125 189.089844 202.925781 191.40625 C 202.40625 195.75 201.917969 199.847656 190.613281 202.527344 C 190.5625 202.539062 190.515625 202.546875 190.464844 202.546875 C 190.320312 202.546875 190.175781 202.496094 190.0625 202.40625 C 189.90625 202.28125 189.816406 202.089844 189.820312 201.894531 C 189.96875 190.296875 193.867188 188.921875 197.996094 187.464844 C 200.203125 186.691406 202.484375 185.886719 204.460938 183.421875 C 204.6875 183.140625 205.09375 183.097656 205.371094 183.320312 Z M 214.246094 164.136719 L 214.246094 193.664062 C 214.246094 206.972656 202.300781 217.796875 187.617188 217.796875 C 172.933594 217.796875 160.992188 206.972656 160.992188 193.664062 L 160.992188 154.085938 C 160.992188 153.730469 161.28125 153.445312 161.636719 153.445312 C 161.992188 153.445312 162.28125 153.730469 162.28125 154.085938 L 162.28125 193.664062 C 162.28125 206.261719 173.648438 216.511719 187.617188 216.511719 C 201.589844 216.511719 212.953125 206.261719 212.953125 193.664062 L 212.953125 164.136719 C 212.953125 163.78125 213.242188 163.492188 213.597656 163.492188 C 213.957031 163.492188 214.246094 163.78125 214.246094 164.136719 " fill-opacity="1" fill-rule="nonzero"/></g><g clip-path="url(#8c40b71263)"><g clip-path="url(#1f54c1e093)"><path fill="#ff66c4" d="M 243.449219 115.847656 L 256.761719 115.847656 L 256.761719 129.160156 L 243.449219 129.160156 Z M 243.449219 115.847656 " fill-opacity="1" fill-rule="nonzero"/></g></g><g fill="#7dedff" fill-opacity="1"><g transform="translate(92.116751, 279.310998)"><g><path d="M 35.1875 -37.15625 C 35.53125 -37.070312 35.707031 -36.863281 35.71875 -36.53125 C 35.738281 -36.21875 35.738281 -35.921875 35.71875 -35.640625 C 35.632812 -34.335938 35.550781 -33.039062 35.46875 -31.75 C 35.332031 -29.800781 35.195312 -27.847656 35.0625 -25.890625 C 34.914062 -23.398438 34.769531 -20.914062 34.625 -18.4375 C 34.457031 -15.320312 34.3125 -12.207031 34.1875 -9.09375 C 34.113281 -7.445312 34.070312 -5.800781 34.0625 -4.15625 C 34.019531 -2.457031 33.976562 -0.765625 33.9375 0.921875 C 33.832031 3.609375 33.796875 6.304688 33.828125 9.015625 C 33.859375 9.742188 33.5625 10.066406 32.9375 9.984375 C 32.53125 9.929688 32.296875 9.710938 32.234375 9.328125 C 32.203125 9.140625 32.1875 8.945312 32.1875 8.75 C 32.164062 7.507812 32.148438 6.28125 32.140625 5.0625 C 32.054688 2.132812 32.015625 -0.785156 32.015625 -3.703125 C 32.046875 -6.085938 32.117188 -8.472656 32.234375 -10.859375 C 32.273438 -11.785156 32.316406 -12.710938 32.359375 -13.640625 C 32.398438 -14.648438 32.441406 -15.660156 32.484375 -16.671875 C 32.523438 -17.316406 32.550781 -17.957031 32.5625 -18.59375 C 32.5625 -18.613281 32.5625 -18.628906 32.5625 -18.640625 C 32.632812 -19.148438 32.59375 -19.648438 32.4375 -20.140625 C 32.300781 -19.679688 32.175781 -19.234375 32.0625 -18.796875 C 31.332031 -16.203125 30.523438 -13.632812 29.640625 -11.09375 C 28.828125 -8.84375 27.9375 -6.628906 26.96875 -4.453125 C 26 -2.285156 24.910156 -0.175781 23.703125 1.875 C 22.878906 3.269531 21.984375 4.601562 21.015625 5.875 C 20.046875 7.144531 18.976562 8.347656 17.8125 9.484375 C 16.757812 10.535156 15.601562 11.453125 14.34375 12.234375 C 13.082031 13.003906 11.707031 13.425781 10.21875 13.5 C 8.820312 13.5625 7.582031 13.300781 6.5 12.71875 C 5.414062 12.144531 4.46875 11.28125 3.65625 10.125 C 2.695312 8.726562 1.972656 7.21875 1.484375 5.59375 C 0.941406 3.894531 0.5625 2.171875 0.34375 0.421875 C 0.125 -1.316406 0.015625 -3.070312 0.015625 -4.84375 C 0.00390625 -9.601562 0.601562 -14.257812 1.8125 -18.8125 C 2.132812 -19.976562 2.5 -21.128906 2.90625 -22.265625 C 3.3125 -23.398438 3.789062 -24.507812 4.34375 -25.59375 C 4.71875 -26.3125 5.171875 -26.984375 5.703125 -27.609375 C 6.265625 -28.222656 6.960938 -28.457031 7.796875 -28.3125 C 7.867188 -28.289062 7.9375 -28.265625 8 -28.234375 C 8.0625 -28.203125 8.101562 -28.144531 8.125 -28.0625 C 8.144531 -27.976562 8.148438 -27.898438 8.140625 -27.828125 C 8.128906 -27.765625 8.101562 -27.71875 8.0625 -27.6875 C 7.457031 -27.226562 6.96875 -26.691406 6.59375 -26.078125 C 6.21875 -25.460938 5.898438 -24.828125 5.640625 -24.171875 C 4.878906 -22.453125 4.253906 -20.695312 3.765625 -18.90625 C 3.273438 -17.113281 2.878906 -15.300781 2.578125 -13.46875 C 1.867188 -9.175781 1.722656 -4.851562 2.140625 -0.5 C 2.335938 1.957031 2.894531 4.335938 3.8125 6.640625 C 4.3125 8.015625 5.023438 9.253906 5.953125 10.359375 C 6.410156 10.910156 6.9375 11.375 7.53125 11.75 C 8.6875 12.457031 9.90625 12.617188 11.1875 12.234375 C 12.113281 11.910156 12.960938 11.460938 13.734375 10.890625 C 14.816406 10.117188 15.8125 9.253906 16.71875 8.296875 C 17.632812 7.347656 18.488281 6.347656 19.28125 5.296875 C 20.476562 3.691406 21.5625 2.019531 22.53125 0.28125 C 23.5 -1.445312 24.394531 -3.226562 25.21875 -5.0625 C 26.832031 -8.726562 28.207031 -12.476562 29.34375 -16.3125 C 30.476562 -20.15625 31.425781 -24.054688 32.1875 -28.015625 C 32.519531 -29.765625 32.84375 -31.503906 33.15625 -33.234375 C 33.28125 -34.023438 33.410156 -34.816406 33.546875 -35.609375 C 33.566406 -35.691406 33.582031 -35.773438 33.59375 -35.859375 C 33.613281 -35.960938 33.632812 -36.066406 33.65625 -36.171875 C 33.800781 -37.078125 34.3125 -37.40625 35.1875 -37.15625 Z M 32.421875 -23.734375 C 32.398438 -23.734375 32.390625 -23.734375 32.390625 -23.734375 C 32.390625 -23.734375 32.390625 -23.726562 32.390625 -23.71875 C 32.390625 -23.71875 32.394531 -23.710938 32.40625 -23.703125 C 32.414062 -23.691406 32.425781 -23.6875 32.4375 -23.6875 C 32.425781 -23.707031 32.421875 -23.71875 32.421875 -23.71875 C 32.421875 -23.71875 32.421875 -23.722656 32.421875 -23.734375 Z M 32.46875 -23.734375 C 32.46875 -23.765625 32.46875 -23.785156 32.46875 -23.796875 C 32.46875 -23.785156 32.46875 -23.78125 32.46875 -23.78125 C 32.46875 -23.75 32.46875 -23.734375 32.46875 -23.734375 Z M 32.46875 -23.734375 "/></g></g></g><g fill="#7dedff" fill-opacity="1"><g transform="translate(128.136209, 279.310998)"><g><path d="M 9.484375 -4.40625 C 10.078125 -5.34375 10.425781 -5.9375 10.53125 -6.1875 C 10.644531 -6.445312 10.734375 -6.4375 10.796875 -6.15625 C 10.867188 -5.882812 10.679688 -5.265625 10.234375 -4.296875 C 9.785156 -3.328125 9.234375 -2.582031 8.578125 -2.0625 C 7.921875 -1.539062 7.304688 -1.347656 6.734375 -1.484375 C 6.171875 -1.617188 5.765625 -2.015625 5.515625 -2.671875 C 5.273438 -3.328125 5.203125 -4.148438 5.296875 -5.140625 C 5.296875 -5.148438 5.304688 -5.191406 5.328125 -5.265625 C 5.335938 -5.429688 5.363281 -5.675781 5.40625 -6 C 5.445312 -6.332031 5.476562 -6.675781 5.5 -7.03125 C 5.519531 -7.382812 5.507812 -7.675781 5.46875 -7.90625 C 5.425781 -8.132812 5.320312 -8.210938 5.15625 -8.140625 C 4.75 -7.921875 4.351562 -7.488281 3.96875 -6.84375 C 3.582031 -6.195312 3.226562 -5.519531 2.90625 -4.8125 C 2.59375 -4.101562 2.375 -3.53125 2.25 -3.09375 C 2.195312 -2.957031 2.144531 -2.8125 2.09375 -2.65625 C 2.03125 -2.457031 1.957031 -2.257812 1.875 -2.0625 C 1.644531 -1.488281 1.257812 -1.269531 0.71875 -1.40625 C 0.40625 -1.46875 0.222656 -1.65625 0.171875 -1.96875 C 0.160156 -2.195312 0.15625 -2.421875 0.15625 -2.640625 C 0.15625 -2.773438 0.144531 -2.898438 0.125 -3.015625 C 0.09375 -4.710938 0.0507812 -6.421875 0 -8.140625 C 0.0078125 -8.347656 0.09375 -8.488281 0.25 -8.5625 C 0.414062 -8.632812 0.613281 -8.671875 0.84375 -8.671875 C 1.007812 -8.671875 1.164062 -8.625 1.3125 -8.53125 C 1.457031 -8.445312 1.550781 -8.257812 1.59375 -7.96875 C 1.613281 -7.863281 1.625 -7.765625 1.625 -7.671875 C 1.632812 -7.609375 1.640625 -7.554688 1.640625 -7.515625 C 1.671875 -7.273438 1.6875 -7.070312 1.6875 -6.90625 C 1.6875 -6.65625 1.703125 -6.484375 1.734375 -6.390625 C 1.773438 -6.296875 1.847656 -6.296875 1.953125 -6.390625 C 2.066406 -6.492188 2.25 -6.734375 2.5 -7.109375 C 2.9375 -7.785156 3.476562 -8.359375 4.125 -8.828125 C 4.707031 -9.242188 5.351562 -9.421875 6.0625 -9.359375 C 6.664062 -9.296875 7.070312 -8.976562 7.28125 -8.40625 C 7.363281 -8.113281 7.40625 -7.816406 7.40625 -7.515625 C 7.40625 -7.222656 7.382812 -6.925781 7.34375 -6.625 C 7.332031 -6.320312 7.3125 -6.007812 7.28125 -5.6875 C 7.25 -5.59375 7.226562 -5.492188 7.21875 -5.390625 C 7.113281 -4.296875 7.144531 -3.5625 7.3125 -3.1875 C 7.488281 -2.820312 7.75 -2.703125 8.09375 -2.828125 C 8.4375 -2.953125 8.898438 -3.476562 9.484375 -4.40625 Z M 9.484375 -4.40625 "/></g></g></g><g fill="#7dedff" fill-opacity="1"><g transform="translate(138.514175, 279.310998)"><g><path d="M 5.953125 -4.65625 C 5.710938 -4.164062 5.304688 -3.625 4.734375 -3.03125 C 4.171875 -2.4375 3.523438 -2.054688 2.796875 -1.890625 C 2.078125 -1.734375 1.390625 -1.984375 0.734375 -2.640625 C 0.484375 -2.929688 0.296875 -3.265625 0.171875 -3.640625 C 0.0546875 -4.023438 0.015625 -4.398438 0.046875 -4.765625 C 0.046875 -4.859375 0.046875 -4.984375 0.046875 -5.140625 C 0.046875 -5.523438 0.0625 -5.972656 0.09375 -6.484375 C 0.132812 -7.003906 0.210938 -7.46875 0.328125 -7.875 C 0.441406 -8.289062 0.628906 -8.539062 0.890625 -8.625 C 1.609375 -8.8125 2 -8.5625 2.0625 -7.875 C 2.0625 -7.644531 2.054688 -7.421875 2.046875 -7.203125 C 2.023438 -7.085938 2.015625 -6.984375 2.015625 -6.890625 C 2.003906 -6.566406 1.988281 -6.242188 1.96875 -5.921875 C 1.96875 -5.671875 1.957031 -5.414062 1.9375 -5.15625 C 1.925781 -4.050781 2.175781 -3.394531 2.6875 -3.1875 C 3.195312 -2.976562 3.78125 -3.203125 4.4375 -3.859375 C 5.09375 -4.515625 5.519531 -5.0625 5.71875 -5.5 C 5.925781 -5.9375 6.078125 -6.023438 6.171875 -5.765625 C 6.265625 -5.515625 6.191406 -5.144531 5.953125 -4.65625 Z M 1.921875 -11 C 1.816406 -10.90625 1.691406 -10.847656 1.546875 -10.828125 C 1.410156 -10.804688 1.289062 -10.816406 1.1875 -10.859375 C 1.101562 -10.929688 1.046875 -11.019531 1.015625 -11.125 C 0.992188 -11.238281 0.984375 -11.375 0.984375 -11.53125 C 0.984375 -11.5625 0.992188 -11.59375 1.015625 -11.625 C 1.023438 -11.757812 1.054688 -11.894531 1.109375 -12.03125 C 1.265625 -12.40625 1.582031 -12.578125 2.0625 -12.546875 C 2.226562 -12.515625 2.359375 -12.441406 2.453125 -12.328125 C 2.554688 -12.210938 2.582031 -12.082031 2.53125 -11.9375 C 2.414062 -11.5625 2.210938 -11.25 1.921875 -11 Z M 1.921875 -11 "/></g></g></g><g fill="#7dedff" fill-opacity="1"><g transform="translate(144.429265, 279.310998)"><g><path d="M 10.296875 -5.8125 C 10.410156 -5.78125 10.453125 -5.679688 10.421875 -5.515625 C 10.390625 -5.347656 10.332031 -5.160156 10.25 -4.953125 C 10.164062 -4.753906 10.085938 -4.597656 10.015625 -4.484375 C 10.003906 -4.441406 9.988281 -4.414062 9.96875 -4.40625 C 8.894531 -2.175781 8.019531 0.175781 7.34375 2.65625 C 6.664062 5.144531 6.125 7.609375 5.71875 10.046875 C 5.539062 11.046875 5.375 12.035156 5.21875 13.015625 C 5.101562 13.679688 4.984375 14.351562 4.859375 15.03125 C 4.828125 15.269531 4.78125 15.492188 4.71875 15.703125 C 4.613281 16.054688 4.359375 16.21875 3.953125 16.1875 C 3.546875 16.15625 3.332031 15.960938 3.3125 15.609375 C 3.28125 15.335938 3.28125 15.0625 3.3125 14.78125 C 3.320312 14.40625 3.347656 14.035156 3.390625 13.671875 C 3.554688 11.617188 3.726562 9.5625 3.90625 7.5 C 4.082031 5.550781 4.257812 3.601562 4.4375 1.65625 C 4.550781 0.351562 4.675781 -0.941406 4.8125 -2.234375 C 4.8125 -2.265625 4.8125 -2.289062 4.8125 -2.3125 C 4.832031 -2.394531 4.832031 -2.46875 4.8125 -2.53125 C 4.800781 -2.601562 4.757812 -2.675781 4.6875 -2.75 C 4.550781 -2.75 4.429688 -2.71875 4.328125 -2.65625 C 4.234375 -2.601562 4.144531 -2.53125 4.0625 -2.4375 C 3.988281 -2.375 3.921875 -2.316406 3.859375 -2.265625 C 3.179688 -1.773438 2.4375 -1.585938 1.625 -1.703125 C 0.664062 -1.816406 0.0859375 -2.335938 -0.109375 -3.265625 C -0.191406 -3.691406 -0.191406 -4.109375 -0.109375 -4.515625 C 0.160156 -5.703125 0.765625 -6.675781 1.703125 -7.4375 C 2.585938 -8.125 3.554688 -8.300781 4.609375 -7.96875 C 4.765625 -7.914062 4.910156 -7.863281 5.046875 -7.8125 C 5.410156 -7.65625 5.796875 -7.554688 6.203125 -7.515625 C 6.390625 -7.503906 6.53125 -7.425781 6.625 -7.28125 C 6.71875 -7.144531 6.765625 -6.984375 6.765625 -6.796875 C 6.765625 -6.296875 6.75 -5.785156 6.71875 -5.265625 C 6.632812 -4.054688 6.519531 -2.539062 6.375 -0.71875 C 6.289062 0.570312 6.21875 1.65625 6.15625 2.53125 C 6.351562 1.988281 6.769531 0.984375 7.40625 -0.484375 C 8.050781 -1.960938 8.6875 -3.296875 9.3125 -4.484375 C 9.394531 -4.648438 9.476562 -4.8125 9.5625 -4.96875 C 9.695312 -5.25 9.816406 -5.46875 9.921875 -5.625 C 10.035156 -5.78125 10.160156 -5.84375 10.296875 -5.8125 Z M 4.5625 -5.921875 C 4.664062 -6.140625 4.679688 -6.328125 4.609375 -6.484375 C 4.546875 -6.648438 4.398438 -6.816406 4.171875 -6.984375 C 3.828125 -7.253906 3.476562 -7.253906 3.125 -6.984375 C 2.5 -6.347656 2.078125 -5.65625 1.859375 -4.90625 C 1.640625 -4.164062 1.585938 -3.5625 1.703125 -3.09375 C 1.816406 -2.632812 2.046875 -2.519531 2.390625 -2.75 C 2.578125 -2.882812 2.765625 -3.023438 2.953125 -3.171875 C 3.335938 -3.554688 3.65625 -3.984375 3.90625 -4.453125 C 4.164062 -4.921875 4.382812 -5.410156 4.5625 -5.921875 Z M 4.5625 -5.921875 "/></g></g></g><g fill="#7dedff" fill-opacity="1"><g transform="translate(154.279486, 279.310998)"><g><path d="M 11.859375 -5.765625 C 12.035156 -5.753906 12.007812 -5.523438 11.78125 -5.078125 C 11.550781 -4.628906 11.175781 -4.113281 10.65625 -3.53125 C 10.144531 -2.945312 9.566406 -2.445312 8.921875 -2.03125 C 8.285156 -1.613281 7.648438 -1.421875 7.015625 -1.453125 C 6.546875 -1.503906 6.195312 -1.644531 5.96875 -1.875 C 5.75 -2.113281 5.59375 -2.375 5.5 -2.65625 C 5.414062 -2.945312 5.363281 -3.203125 5.34375 -3.421875 C 5.332031 -3.578125 5.3125 -3.691406 5.28125 -3.765625 C 5.257812 -3.835938 5.21875 -3.84375 5.15625 -3.78125 C 4.664062 -2.65625 3.816406 -2.09375 2.609375 -2.09375 C 1.929688 -2.09375 1.378906 -2.390625 0.953125 -2.984375 C 0.535156 -3.578125 0.269531 -4.320312 0.15625 -5.21875 C 0.0507812 -6.125 0.140625 -7.039062 0.421875 -7.96875 C 0.492188 -8.269531 0.679688 -8.476562 0.984375 -8.59375 C 1.203125 -8.675781 1.425781 -8.664062 1.65625 -8.5625 C 1.882812 -8.46875 2.003906 -8.320312 2.015625 -8.125 C 2.015625 -7.914062 2 -7.710938 1.96875 -7.515625 C 1.9375 -7.359375 1.910156 -7.210938 1.890625 -7.078125 C 1.859375 -6.523438 1.867188 -5.921875 1.921875 -5.265625 C 1.972656 -4.609375 2.144531 -4.046875 2.4375 -3.578125 C 2.726562 -3.203125 3.050781 -3.15625 3.40625 -3.4375 C 3.757812 -3.71875 4.070312 -4.148438 4.34375 -4.734375 C 4.539062 -5.203125 4.695312 -5.664062 4.8125 -6.125 C 4.9375 -6.59375 5.015625 -6.953125 5.046875 -7.203125 C 5.078125 -7.304688 5.09375 -7.375 5.09375 -7.40625 C 5.144531 -7.613281 5.195312 -7.8125 5.25 -8 C 5.332031 -8.28125 5.421875 -8.554688 5.515625 -8.828125 C 5.648438 -9.347656 6.015625 -9.566406 6.609375 -9.484375 C 6.972656 -9.453125 7.164062 -9.273438 7.1875 -8.953125 C 7.21875 -8.515625 7.226562 -8.078125 7.21875 -7.640625 C 7.195312 -7.179688 7.175781 -6.734375 7.15625 -6.296875 C 7.113281 -5.660156 7.082031 -5.03125 7.0625 -4.40625 C 7.050781 -3.5 7.234375 -2.96875 7.609375 -2.8125 C 7.992188 -2.664062 8.457031 -2.765625 9 -3.109375 C 9.550781 -3.453125 10.078125 -3.921875 10.578125 -4.515625 C 10.628906 -4.566406 10.6875 -4.632812 10.75 -4.71875 C 10.851562 -4.84375 10.976562 -4.984375 11.125 -5.140625 C 11.269531 -5.304688 11.40625 -5.445312 11.53125 -5.5625 C 11.664062 -5.6875 11.773438 -5.753906 11.859375 -5.765625 Z M 11.859375 -5.765625 "/></g></g></g><g fill="#7dedff" fill-opacity="1"><g transform="translate(165.747363, 279.310998)"><g><path d="M 11.0625 -5.546875 C 11.226562 -5.640625 11.390625 -5.710938 11.546875 -5.765625 C 11.710938 -5.828125 11.816406 -5.828125 11.859375 -5.765625 C 11.910156 -5.703125 11.847656 -5.5625 11.671875 -5.34375 C 11.097656 -4.6875 10.410156 -4.082031 9.609375 -3.53125 C 8.804688 -2.988281 7.988281 -2.53125 7.15625 -2.15625 C 6.488281 -1.851562 5.789062 -1.613281 5.0625 -1.4375 C 4.332031 -1.269531 3.609375 -1.234375 2.890625 -1.328125 C 2.179688 -1.429688 1.53125 -1.75 0.9375 -2.28125 C 0.0390625 -3.101562 -0.328125 -4.113281 -0.171875 -5.3125 C -0.046875 -6.257812 0.316406 -7.0625 0.921875 -7.71875 C 1.535156 -8.382812 2.304688 -8.835938 3.234375 -9.078125 C 4.003906 -9.242188 4.773438 -9.265625 5.546875 -9.140625 C 5.898438 -9.078125 6.222656 -8.957031 6.515625 -8.78125 C 6.785156 -8.570312 6.929688 -8.328125 6.953125 -8.046875 C 6.984375 -7.773438 6.878906 -7.515625 6.640625 -7.265625 C 6.148438 -6.828125 5.585938 -6.566406 4.953125 -6.484375 C 4.222656 -6.359375 3.5 -6.28125 2.78125 -6.25 C 2.425781 -6.25 2.175781 -6.175781 2.03125 -6.03125 C 1.894531 -5.882812 1.816406 -5.640625 1.796875 -5.296875 C 1.679688 -4.335938 1.984375 -3.554688 2.703125 -2.953125 C 3.160156 -2.585938 3.710938 -2.429688 4.359375 -2.484375 C 5.003906 -2.546875 5.6875 -2.722656 6.40625 -3.015625 C 7.132812 -3.304688 7.847656 -3.648438 8.546875 -4.046875 C 9.242188 -4.441406 9.875 -4.8125 10.4375 -5.15625 C 10.664062 -5.3125 10.875 -5.441406 11.0625 -5.546875 Z M 3.09375 -7.578125 C 3.09375 -7.566406 3.078125 -7.5625 3.046875 -7.5625 C 3.015625 -7.53125 2.972656 -7.492188 2.921875 -7.453125 C 2.878906 -7.410156 2.835938 -7.367188 2.796875 -7.328125 C 2.753906 -7.285156 2.734375 -7.253906 2.734375 -7.234375 C 2.742188 -7.179688 2.878906 -7.164062 3.140625 -7.1875 C 3.398438 -7.21875 3.6875 -7.265625 4 -7.328125 C 4.3125 -7.398438 4.570312 -7.488281 4.78125 -7.59375 C 5 -7.707031 5.066406 -7.84375 4.984375 -8 C 4.941406 -8.039062 4.890625 -8.078125 4.828125 -8.109375 C 4.773438 -8.148438 4.710938 -8.175781 4.640625 -8.1875 C 4.335938 -8.1875 4.0625 -8.128906 3.8125 -8.015625 C 3.5625 -7.898438 3.320312 -7.753906 3.09375 -7.578125 Z M 3.09375 -7.578125 "/></g></g></g><g fill="#747b43" fill-opacity="1"><g transform="translate(177.124558, 279.310998)"><g/></g></g><g fill="#004aad" fill-opacity="1"><g transform="translate(183.23003, 279.310998)"><g><path d="M 38.34375 -6.046875 C 38.507812 -5.960938 38.566406 -5.828125 38.515625 -5.640625 C 38.472656 -5.460938 38.378906 -5.269531 38.234375 -5.0625 C 38.097656 -4.863281 37.972656 -4.695312 37.859375 -4.5625 C 37.804688 -4.5 37.773438 -4.445312 37.765625 -4.40625 C 36.765625 -3.03125 35.898438 -1.582031 35.171875 -0.0625 C 34.441406 1.445312 33.753906 2.988281 33.109375 4.5625 C 32.847656 5.164062 32.585938 5.769531 32.328125 6.375 C 31.742188 7.695312 31.175781 9.035156 30.625 10.390625 C 29.675781 12.691406 28.675781 14.976562 27.625 17.25 C 27.25 18.039062 26.828125 18.816406 26.359375 19.578125 C 25.984375 20.191406 25.410156 20.492188 24.640625 20.484375 C 24.003906 20.492188 23.617188 20.195312 23.484375 19.59375 C 23.335938 19.070312 23.257812 18.539062 23.25 18 C 23.164062 15.945312 23.210938 13.90625 23.390625 11.875 C 23.515625 10.457031 23.628906 9.050781 23.734375 7.65625 C 23.828125 6.132812 23.941406 4.617188 24.078125 3.109375 C 24.378906 -0.335938 24.710938 -3.785156 25.078125 -7.234375 C 25.492188 -11.191406 25.925781 -15.140625 26.375 -19.078125 C 27.164062 -25.742188 27.867188 -32.429688 28.484375 -39.140625 C 28.515625 -39.554688 28.519531 -39.898438 28.5 -40.171875 C 28.488281 -40.441406 28.429688 -40.539062 28.328125 -40.46875 C 28.222656 -40.40625 28.0625 -40.085938 27.84375 -39.515625 C 25.851562 -33.796875 24.019531 -28.03125 22.34375 -22.21875 C 22.269531 -22.007812 22.210938 -21.800781 22.171875 -21.59375 C 21.160156 -18.144531 20.140625 -14.707031 19.109375 -11.28125 C 18.722656 -9.945312 18.273438 -8.597656 17.765625 -7.234375 C 17.265625 -5.867188 16.6875 -4.582031 16.03125 -3.375 C 15.832031 -3.019531 15.570312 -2.78125 15.25 -2.65625 C 14.925781 -2.53125 14.5625 -2.488281 14.15625 -2.53125 C 13.738281 -2.570312 13.429688 -2.773438 13.234375 -3.140625 C 13.066406 -3.492188 12.960938 -3.875 12.921875 -4.28125 C 12.878906 -4.75 12.828125 -5.226562 12.765625 -5.71875 C 12.640625 -6.789062 12.535156 -7.859375 12.453125 -8.921875 C 12.210938 -11.898438 11.898438 -14.890625 11.515625 -17.890625 C 11.128906 -20.890625 10.628906 -23.847656 10.015625 -26.765625 C 9.847656 -27.515625 9.601562 -27.5 9.28125 -26.71875 C 8.957031 -25.9375 8.585938 -24.625 8.171875 -22.78125 C 7.753906 -20.945312 7.3125 -18.832031 6.84375 -16.4375 C 6.382812 -14.050781 5.941406 -11.617188 5.515625 -9.140625 C 5.085938 -6.671875 4.695312 -4.410156 4.34375 -2.359375 C 3.800781 0.816406 3.441406 2.84375 3.265625 3.71875 C 3.109375 4.34375 2.894531 4.941406 2.625 5.515625 C 2.5 5.765625 2.328125 5.929688 2.109375 6.015625 C 1.898438 6.097656 1.660156 6.125 1.390625 6.09375 C 0.847656 6.019531 0.519531 5.707031 0.40625 5.15625 C 0.351562 4.875 0.328125 4.582031 0.328125 4.28125 C 0.304688 4.039062 0.296875 3.800781 0.296875 3.5625 C 0.253906 2.644531 0.222656 1.710938 0.203125 0.765625 C 0.0664062 -6.453125 0.109375 -13.679688 0.328125 -20.921875 C 0.472656 -25.492188 0.609375 -30.078125 0.734375 -34.671875 C 0.734375 -35.160156 0.734375 -35.660156 0.734375 -36.171875 C 0.722656 -36.640625 0.722656 -37.117188 0.734375 -37.609375 C 0.742188 -37.984375 0.878906 -38.238281 1.140625 -38.375 C 1.398438 -38.519531 1.707031 -38.515625 2.0625 -38.359375 C 2.195312 -38.316406 2.289062 -38.242188 2.34375 -38.140625 C 2.394531 -38.035156 2.425781 -37.914062 2.4375 -37.78125 C 2.59375 -36.519531 2.648438 -35.257812 2.609375 -34 C 2.585938 -33.238281 2.5625 -32.484375 2.53125 -31.734375 C 2.46875 -29.660156 2.394531 -27.585938 2.3125 -25.515625 C 2.21875 -22.835938 2.15625 -20.171875 2.125 -17.515625 C 2.082031 -15.546875 2.039062 -13.570312 2 -11.59375 C 1.945312 -9.507812 1.925781 -7.425781 1.9375 -5.34375 C 1.9375 -3.914062 1.929688 -2.46875 1.921875 -1 C 1.921875 -0.914062 1.925781 -0.785156 1.9375 -0.609375 C 1.957031 -0.429688 1.988281 -0.242188 2.03125 -0.046875 C 2.070312 0.140625 2.113281 0.289062 2.15625 0.40625 C 2.195312 0.519531 2.242188 0.546875 2.296875 0.484375 C 2.359375 0.429688 2.421875 0.25 2.484375 -0.0625 C 2.628906 -0.988281 2.796875 -2.035156 2.984375 -3.203125 C 3.398438 -5.941406 3.894531 -8.960938 4.46875 -12.265625 C 5.050781 -15.566406 5.707031 -18.679688 6.4375 -21.609375 C 7.164062 -24.546875 7.953125 -26.828125 8.796875 -28.453125 C 9.140625 -29.035156 9.570312 -29.316406 10.09375 -29.296875 C 10.613281 -29.273438 11.035156 -28.957031 11.359375 -28.34375 C 11.773438 -27.34375 12.128906 -26.125 12.421875 -24.6875 C 12.710938 -23.25 12.953125 -21.75 13.140625 -20.1875 C 13.328125 -18.632812 13.488281 -17.179688 13.625 -15.828125 C 13.695312 -15.078125 13.769531 -14.398438 13.84375 -13.796875 C 13.9375 -12.835938 14.023438 -11.957031 14.109375 -11.15625 C 14.304688 -9.25 14.488281 -7.765625 14.65625 -6.703125 C 14.832031 -5.648438 15.0625 -5.125 15.34375 -5.125 C 15.632812 -5.125 16.023438 -5.78125 16.515625 -7.09375 C 17.015625 -8.414062 17.691406 -10.515625 18.546875 -13.390625 C 19.328125 -16.054688 20.0625 -18.625 20.75 -21.09375 C 21.65625 -24.351562 22.59375 -27.59375 23.5625 -30.8125 C 24.539062 -34.039062 25.691406 -37.40625 27.015625 -40.90625 C 27.398438 -41.914062 27.800781 -42.75 28.21875 -43.40625 C 28.644531 -44.0625 29.054688 -44.40625 29.453125 -44.4375 C 29.609375 -44.457031 29.757812 -44.4375 29.90625 -44.375 C 30.0625 -44.320312 30.195312 -44.148438 30.3125 -43.859375 C 30.4375 -43.578125 30.503906 -43.097656 30.515625 -42.421875 C 30.546875 -41.296875 30.523438 -40.164062 30.453125 -39.03125 C 30.378906 -37.90625 30.289062 -36.78125 30.1875 -35.65625 C 30.175781 -35.519531 30.171875 -35.394531 30.171875 -35.28125 C 29.609375 -29.507812 28.984375 -23.75 28.296875 -18 C 27.859375 -14.238281 27.4375 -10.484375 27.03125 -6.734375 C 27.03125 -6.648438 27.023438 -6.554688 27.015625 -6.453125 C 26.640625 -2.953125 26.296875 0.546875 25.984375 4.046875 C 25.710938 7.117188 25.46875 10.195312 25.25 13.28125 C 25.226562 13.550781 25.210938 13.832031 25.203125 14.125 C 25.148438 14.914062 25.113281 15.703125 25.09375 16.484375 C 25.09375 16.773438 25.09375 17.054688 25.09375 17.328125 C 25.082031 17.410156 25.085938 17.476562 25.109375 17.53125 C 25.140625 17.59375 25.210938 17.625 25.328125 17.625 C 25.359375 17.625 25.394531 17.613281 25.4375 17.59375 C 25.476562 17.570312 25.503906 17.53125 25.515625 17.46875 C 26.523438 15.382812 27.515625 13.300781 28.484375 11.21875 C 29.378906 9.21875 30.300781 7.21875 31.25 5.21875 C 32.207031 3.21875 33.21875 1.238281 34.28125 -0.71875 C 35.15625 -2.375 35.960938 -3.695312 36.703125 -4.6875 C 37.453125 -5.675781 38 -6.128906 38.34375 -6.046875 Z M 38.34375 -6.046875 "/></g></g></g><g fill="#004aad" fill-opacity="1"><g transform="translate(220.947448, 279.310998)"><g><path d="M 11.0625 -5.546875 C 11.226562 -5.640625 11.390625 -5.710938 11.546875 -5.765625 C 11.710938 -5.828125 11.816406 -5.828125 11.859375 -5.765625 C 11.910156 -5.703125 11.847656 -5.5625 11.671875 -5.34375 C 11.097656 -4.6875 10.410156 -4.082031 9.609375 -3.53125 C 8.804688 -2.988281 7.988281 -2.53125 7.15625 -2.15625 C 6.488281 -1.851562 5.789062 -1.613281 5.0625 -1.4375 C 4.332031 -1.269531 3.609375 -1.234375 2.890625 -1.328125 C 2.179688 -1.429688 1.53125 -1.75 0.9375 -2.28125 C 0.0390625 -3.101562 -0.328125 -4.113281 -0.171875 -5.3125 C -0.046875 -6.257812 0.316406 -7.0625 0.921875 -7.71875 C 1.535156 -8.382812 2.304688 -8.835938 3.234375 -9.078125 C 4.003906 -9.242188 4.773438 -9.265625 5.546875 -9.140625 C 5.898438 -9.078125 6.222656 -8.957031 6.515625 -8.78125 C 6.785156 -8.570312 6.929688 -8.328125 6.953125 -8.046875 C 6.984375 -7.773438 6.878906 -7.515625 6.640625 -7.265625 C 6.148438 -6.828125 5.585938 -6.566406 4.953125 -6.484375 C 4.222656 -6.359375 3.5 -6.28125 2.78125 -6.25 C 2.425781 -6.25 2.175781 -6.175781 2.03125 -6.03125 C 1.894531 -5.882812 1.816406 -5.640625 1.796875 -5.296875 C 1.679688 -4.335938 1.984375 -3.554688 2.703125 -2.953125 C 3.160156 -2.585938 3.710938 -2.429688 4.359375 -2.484375 C 5.003906 -2.546875 5.6875 -2.722656 6.40625 -3.015625 C 7.132812 -3.304688 7.847656 -3.648438 8.546875 -4.046875 C 9.242188 -4.441406 9.875 -4.8125 10.4375 -5.15625 C 10.664062 -5.3125 10.875 -5.441406 11.0625 -5.546875 Z M 3.09375 -7.578125 C 3.09375 -7.566406 3.078125 -7.5625 3.046875 -7.5625 C 3.015625 -7.53125 2.972656 -7.492188 2.921875 -7.453125 C 2.878906 -7.410156 2.835938 -7.367188 2.796875 -7.328125 C 2.753906 -7.285156 2.734375 -7.253906 2.734375 -7.234375 C 2.742188 -7.179688 2.878906 -7.164062 3.140625 -7.1875 C 3.398438 -7.21875 3.6875 -7.265625 4 -7.328125 C 4.3125 -7.398438 4.570312 -7.488281 4.78125 -7.59375 C 5 -7.707031 5.066406 -7.84375 4.984375 -8 C 4.941406 -8.039062 4.890625 -8.078125 4.828125 -8.109375 C 4.773438 -8.148438 4.710938 -8.175781 4.640625 -8.1875 C 4.335938 -8.1875 4.0625 -8.128906 3.8125 -8.015625 C 3.5625 -7.898438 3.320312 -7.753906 3.09375 -7.578125 Z M 3.09375 -7.578125 "/></g></g></g><g fill="#004aad" fill-opacity="1"><g transform="translate(232.335011, 279.310998)"><g><path d="M 18 -5.59375 C 18.070312 -5.726562 18.175781 -5.796875 18.3125 -5.796875 C 18.457031 -5.804688 18.582031 -5.722656 18.6875 -5.546875 C 18.71875 -5.492188 18.675781 -5.363281 18.5625 -5.15625 C 18.457031 -4.945312 18.3125 -4.707031 18.125 -4.4375 C 17.945312 -4.175781 17.769531 -3.9375 17.59375 -3.71875 C 17.425781 -3.5 17.3125 -3.359375 17.25 -3.296875 C 16.488281 -2.453125 15.722656 -1.832031 14.953125 -1.4375 C 14.191406 -1.039062 13.363281 -0.957031 12.46875 -1.1875 C 11.570312 -1.414062 10.570312 -2.050781 9.46875 -3.09375 C 9.300781 -3.28125 9.132812 -3.46875 8.96875 -3.65625 C 8.914062 -3.707031 8.867188 -3.753906 8.828125 -3.796875 C 8.648438 -4.003906 8.453125 -4.03125 8.234375 -3.875 C 8.003906 -3.707031 7.769531 -3.539062 7.53125 -3.375 C 7.320312 -3.21875 7.109375 -3.078125 6.890625 -2.953125 C 6.179688 -2.460938 5.429688 -2.046875 4.640625 -1.703125 C 3.804688 -1.328125 2.925781 -1.1875 2 -1.28125 C 0.550781 -1.445312 -0.195312 -2.242188 -0.25 -3.671875 C -0.269531 -4.679688 -0.0546875 -5.582031 0.390625 -6.375 C 0.835938 -7.175781 1.460938 -7.765625 2.265625 -8.140625 C 3.066406 -8.523438 3.988281 -8.601562 5.03125 -8.375 C 5.144531 -8.351562 5.296875 -8.316406 5.484375 -8.265625 C 5.597656 -8.234375 5.738281 -8.203125 5.90625 -8.171875 C 5.8125 -8.410156 5.722656 -8.617188 5.640625 -8.796875 C 5.484375 -9.109375 5.347656 -9.390625 5.234375 -9.640625 C 4.535156 -11.066406 3.96875 -12.695312 3.53125 -14.53125 C 3.09375 -16.375 2.878906 -18.265625 2.890625 -20.203125 C 2.898438 -22.140625 3.222656 -23.941406 3.859375 -25.609375 C 4.492188 -27.273438 5.554688 -28.648438 7.046875 -29.734375 C 7.984375 -30.367188 8.953125 -30.710938 9.953125 -30.765625 C 10.960938 -30.816406 11.910156 -30.597656 12.796875 -30.109375 C 13.691406 -29.617188 14.414062 -28.882812 14.96875 -27.90625 C 15.6875 -26.5625 16.132812 -25.144531 16.3125 -23.65625 C 16.613281 -21.238281 16.5625 -18.984375 16.15625 -16.890625 C 15.75 -14.804688 15.03125 -12.832031 14 -10.96875 C 12.976562 -9.113281 11.675781 -7.3125 10.09375 -5.5625 C 9.945312 -5.394531 9.867188 -5.257812 9.859375 -5.15625 C 9.847656 -5.0625 9.921875 -4.921875 10.078125 -4.734375 C 10.398438 -4.316406 10.75 -3.910156 11.125 -3.515625 C 11.5 -3.117188 11.921875 -2.785156 12.390625 -2.515625 C 13.046875 -2.234375 13.75 -2.226562 14.5 -2.5 C 15.25 -2.78125 15.941406 -3.207031 16.578125 -3.78125 C 17.222656 -4.363281 17.695312 -4.96875 18 -5.59375 Z M 6.75 -4.59375 C 6.945312 -4.757812 6.960938 -4.945312 6.796875 -5.15625 C 6.691406 -5.28125 6.59375 -5.410156 6.5 -5.546875 C 6.21875 -5.878906 5.898438 -6.222656 5.546875 -6.578125 C 5.203125 -6.929688 4.835938 -7.203125 4.453125 -7.390625 C 4.078125 -7.578125 3.695312 -7.59375 3.3125 -7.4375 C 2.769531 -7.1875 2.328125 -6.738281 1.984375 -6.09375 C 1.640625 -5.457031 1.4375 -4.800781 1.375 -4.125 C 1.3125 -3.457031 1.441406 -2.945312 1.765625 -2.59375 C 2.085938 -2.238281 2.632812 -2.203125 3.40625 -2.484375 C 4.625 -3.023438 5.738281 -3.726562 6.75 -4.59375 Z M 9.296875 -7.078125 C 10.910156 -8.984375 12.113281 -10.859375 12.90625 -12.703125 C 13.707031 -14.546875 14.25 -16.703125 14.53125 -19.171875 C 14.625 -19.773438 14.664062 -20.566406 14.65625 -21.546875 C 14.644531 -22.523438 14.554688 -23.546875 14.390625 -24.609375 C 14.222656 -25.679688 13.921875 -26.65625 13.484375 -27.53125 C 13.046875 -28.40625 12.429688 -29.035156 11.640625 -29.421875 C 10.859375 -29.804688 9.859375 -29.804688 8.640625 -29.421875 C 7.296875 -28.628906 6.296875 -27.582031 5.640625 -26.28125 C 4.992188 -24.976562 4.625 -23.523438 4.53125 -21.921875 C 4.4375 -20.328125 4.539062 -18.695312 4.84375 -17.03125 C 5.144531 -15.363281 5.566406 -13.78125 6.109375 -12.28125 C 6.648438 -10.789062 7.226562 -9.488281 7.84375 -8.375 C 7.914062 -8.238281 7.988281 -8.101562 8.0625 -7.96875 C 8.238281 -7.507812 8.503906 -7.097656 8.859375 -6.734375 C 8.910156 -6.773438 8.960938 -6.816406 9.015625 -6.859375 C 9.117188 -6.921875 9.210938 -6.992188 9.296875 -7.078125 Z M 9.296875 -7.078125 "/></g></g></g><g fill="#004aad" fill-opacity="1"><g transform="translate(250.514413, 279.310998)"><g><path d="M 5.953125 -4.65625 C 5.710938 -4.164062 5.304688 -3.625 4.734375 -3.03125 C 4.171875 -2.4375 3.523438 -2.054688 2.796875 -1.890625 C 2.078125 -1.734375 1.390625 -1.984375 0.734375 -2.640625 C 0.484375 -2.929688 0.296875 -3.265625 0.171875 -3.640625 C 0.0546875 -4.023438 0.015625 -4.398438 0.046875 -4.765625 C 0.046875 -4.859375 0.046875 -4.984375 0.046875 -5.140625 C 0.046875 -5.523438 0.0625 -5.972656 0.09375 -6.484375 C 0.132812 -7.003906 0.210938 -7.46875 0.328125 -7.875 C 0.441406 -8.289062 0.628906 -8.539062 0.890625 -8.625 C 1.609375 -8.8125 2 -8.5625 2.0625 -7.875 C 2.0625 -7.644531 2.054688 -7.421875 2.046875 -7.203125 C 2.023438 -7.085938 2.015625 -6.984375 2.015625 -6.890625 C 2.003906 -6.566406 1.988281 -6.242188 1.96875 -5.921875 C 1.96875 -5.671875 1.957031 -5.414062 1.9375 -5.15625 C 1.925781 -4.050781 2.175781 -3.394531 2.6875 -3.1875 C 3.195312 -2.976562 3.78125 -3.203125 4.4375 -3.859375 C 5.09375 -4.515625 5.519531 -5.0625 5.71875 -5.5 C 5.925781 -5.9375 6.078125 -6.023438 6.171875 -5.765625 C 6.265625 -5.515625 6.191406 -5.144531 5.953125 -4.65625 Z M 1.921875 -11 C 1.816406 -10.90625 1.691406 -10.847656 1.546875 -10.828125 C 1.410156 -10.804688 1.289062 -10.816406 1.1875 -10.859375 C 1.101562 -10.929688 1.046875 -11.019531 1.015625 -11.125 C 0.992188 -11.238281 0.984375 -11.375 0.984375 -11.53125 C 0.984375 -11.5625 0.992188 -11.59375 1.015625 -11.625 C 1.023438 -11.757812 1.054688 -11.894531 1.109375 -12.03125 C 1.265625 -12.40625 1.582031 -12.578125 2.0625 -12.546875 C 2.226562 -12.515625 2.359375 -12.441406 2.453125 -12.328125 C 2.554688 -12.210938 2.582031 -12.082031 2.53125 -11.9375 C 2.414062 -11.5625 2.210938 -11.25 1.921875 -11 Z M 1.921875 -11 "/></g></g></g><g fill="#004aad" fill-opacity="1"><g transform="translate(256.429503, 279.310998)"><g><path d="M 10.65625 -5.59375 C 10.96875 -5.789062 11.175781 -5.847656 11.28125 -5.765625 C 11.382812 -5.679688 11.316406 -5.476562 11.078125 -5.15625 C 10.390625 -4.332031 9.535156 -3.5625 8.515625 -2.84375 C 7.492188 -2.132812 6.476562 -1.625 5.46875 -1.3125 C 4.820312 -1.070312 4.128906 -0.953125 3.390625 -0.953125 C 2.867188 -0.929688 2.34375 -1.007812 1.8125 -1.1875 C 0.675781 -1.550781 0.03125 -2.328125 -0.125 -3.515625 C -0.207031 -4.179688 -0.164062 -4.84375 0 -5.5 C 0.195312 -6.164062 0.519531 -6.75 0.96875 -7.25 C 1.414062 -7.757812 1.96875 -8.148438 2.625 -8.421875 C 3.25 -8.660156 3.890625 -8.753906 4.546875 -8.703125 C 5.210938 -8.648438 5.757812 -8.4375 6.1875 -8.0625 C 6.25 -8 6.28125 -7.914062 6.28125 -7.8125 C 6.28125 -7.71875 6.265625 -7.617188 6.234375 -7.515625 C 6.128906 -7.210938 5.984375 -7.066406 5.796875 -7.078125 C 5.617188 -7.097656 5.40625 -7.175781 5.15625 -7.3125 C 4.96875 -7.40625 4.765625 -7.492188 4.546875 -7.578125 C 4.328125 -7.671875 4.097656 -7.691406 3.859375 -7.640625 C 3.203125 -7.546875 2.65625 -7.191406 2.21875 -6.578125 C 1.863281 -6.066406 1.625 -5.5 1.5 -4.875 C 1.375 -4.257812 1.421875 -3.707031 1.640625 -3.21875 C 1.910156 -2.71875 2.347656 -2.429688 2.953125 -2.359375 C 3.554688 -2.296875 4.242188 -2.367188 5.015625 -2.578125 C 5.796875 -2.785156 6.570312 -3.070312 7.34375 -3.4375 C 8.113281 -3.8125 8.796875 -4.191406 9.390625 -4.578125 C 9.992188 -4.960938 10.414062 -5.300781 10.65625 -5.59375 Z M 10.65625 -5.59375 "/></g></g></g><g fill="#004aad" fill-opacity="1"><g transform="translate(267.266376, 279.310998)"><g><path d="M 5.953125 -4.65625 C 5.710938 -4.164062 5.304688 -3.625 4.734375 -3.03125 C 4.171875 -2.4375 3.523438 -2.054688 2.796875 -1.890625 C 2.078125 -1.734375 1.390625 -1.984375 0.734375 -2.640625 C 0.484375 -2.929688 0.296875 -3.265625 0.171875 -3.640625 C 0.0546875 -4.023438 0.015625 -4.398438 0.046875 -4.765625 C 0.046875 -4.859375 0.046875 -4.984375 0.046875 -5.140625 C 0.046875 -5.523438 0.0625 -5.972656 0.09375 -6.484375 C 0.132812 -7.003906 0.210938 -7.46875 0.328125 -7.875 C 0.441406 -8.289062 0.628906 -8.539062 0.890625 -8.625 C 1.609375 -8.8125 2 -8.5625 2.0625 -7.875 C 2.0625 -7.644531 2.054688 -7.421875 2.046875 -7.203125 C 2.023438 -7.085938 2.015625 -6.984375 2.015625 -6.890625 C 2.003906 -6.566406 1.988281 -6.242188 1.96875 -5.921875 C 1.96875 -5.671875 1.957031 -5.414062 1.9375 -5.15625 C 1.925781 -4.050781 2.175781 -3.394531 2.6875 -3.1875 C 3.195312 -2.976562 3.78125 -3.203125 4.4375 -3.859375 C 5.09375 -4.515625 5.519531 -5.0625 5.71875 -5.5 C 5.925781 -5.9375 6.078125 -6.023438 6.171875 -5.765625 C 6.265625 -5.515625 6.191406 -5.144531 5.953125 -4.65625 Z M 1.921875 -11 C 1.816406 -10.90625 1.691406 -10.847656 1.546875 -10.828125 C 1.410156 -10.804688 1.289062 -10.816406 1.1875 -10.859375 C 1.101562 -10.929688 1.046875 -11.019531 1.015625 -11.125 C 0.992188 -11.238281 0.984375 -11.375 0.984375 -11.53125 C 0.984375 -11.5625 0.992188 -11.59375 1.015625 -11.625 C 1.023438 -11.757812 1.054688 -11.894531 1.109375 -12.03125 C 1.265625 -12.40625 1.582031 -12.578125 2.0625 -12.546875 C 2.226562 -12.515625 2.359375 -12.441406 2.453125 -12.328125 C 2.554688 -12.210938 2.582031 -12.082031 2.53125 -11.9375 C 2.414062 -11.5625 2.210938 -11.25 1.921875 -11 Z M 1.921875 -11 "/></g></g></g><g fill="#004aad" fill-opacity="1"><g transform="translate(273.181466, 279.310998)"><g><path d="M 9.484375 -4.40625 C 10.078125 -5.34375 10.425781 -5.9375 10.53125 -6.1875 C 10.644531 -6.445312 10.734375 -6.4375 10.796875 -6.15625 C 10.867188 -5.882812 10.679688 -5.265625 10.234375 -4.296875 C 9.785156 -3.328125 9.234375 -2.582031 8.578125 -2.0625 C 7.921875 -1.539062 7.304688 -1.347656 6.734375 -1.484375 C 6.171875 -1.617188 5.765625 -2.015625 5.515625 -2.671875 C 5.273438 -3.328125 5.203125 -4.148438 5.296875 -5.140625 C 5.296875 -5.148438 5.304688 -5.191406 5.328125 -5.265625 C 5.335938 -5.429688 5.363281 -5.675781 5.40625 -6 C 5.445312 -6.332031 5.476562 -6.675781 5.5 -7.03125 C 5.519531 -7.382812 5.507812 -7.675781 5.46875 -7.90625 C 5.425781 -8.132812 5.320312 -8.210938 5.15625 -8.140625 C 4.75 -7.921875 4.351562 -7.488281 3.96875 -6.84375 C 3.582031 -6.195312 3.226562 -5.519531 2.90625 -4.8125 C 2.59375 -4.101562 2.375 -3.53125 2.25 -3.09375 C 2.195312 -2.957031 2.144531 -2.8125 2.09375 -2.65625 C 2.03125 -2.457031 1.957031 -2.257812 1.875 -2.0625 C 1.644531 -1.488281 1.257812 -1.269531 0.71875 -1.40625 C 0.40625 -1.46875 0.222656 -1.65625 0.171875 -1.96875 C 0.160156 -2.195312 0.15625 -2.421875 0.15625 -2.640625 C 0.15625 -2.773438 0.144531 -2.898438 0.125 -3.015625 C 0.09375 -4.710938 0.0507812 -6.421875 0 -8.140625 C 0.0078125 -8.347656 0.09375 -8.488281 0.25 -8.5625 C 0.414062 -8.632812 0.613281 -8.671875 0.84375 -8.671875 C 1.007812 -8.671875 1.164062 -8.625 1.3125 -8.53125 C 1.457031 -8.445312 1.550781 -8.257812 1.59375 -7.96875 C 1.613281 -7.863281 1.625 -7.765625 1.625 -7.671875 C 1.632812 -7.609375 1.640625 -7.554688 1.640625 -7.515625 C 1.671875 -7.273438 1.6875 -7.070312 1.6875 -6.90625 C 1.6875 -6.65625 1.703125 -6.484375 1.734375 -6.390625 C 1.773438 -6.296875 1.847656 -6.296875 1.953125 -6.390625 C 2.066406 -6.492188 2.25 -6.734375 2.5 -7.109375 C 2.9375 -7.785156 3.476562 -8.359375 4.125 -8.828125 C 4.707031 -9.242188 5.351562 -9.421875 6.0625 -9.359375 C 6.664062 -9.296875 7.070312 -8.976562 7.28125 -8.40625 C 7.363281 -8.113281 7.40625 -7.816406 7.40625 -7.515625 C 7.40625 -7.222656 7.382812 -6.925781 7.34375 -6.625 C 7.332031 -6.320312 7.3125 -6.007812 7.28125 -5.6875 C 7.25 -5.59375 7.226562 -5.492188 7.21875 -5.390625 C 7.113281 -4.296875 7.144531 -3.5625 7.3125 -3.1875 C 7.488281 -2.820312 7.75 -2.703125 8.09375 -2.828125 C 8.4375 -2.953125 8.898438 -3.476562 9.484375 -4.40625 Z M 9.484375 -4.40625 "/></g></g></g><g fill="#004aad" fill-opacity="1"><g transform="translate(283.559437, 279.310998)"><g><path d="M 11.0625 -5.546875 C 11.226562 -5.640625 11.390625 -5.710938 11.546875 -5.765625 C 11.710938 -5.828125 11.816406 -5.828125 11.859375 -5.765625 C 11.910156 -5.703125 11.847656 -5.5625 11.671875 -5.34375 C 11.097656 -4.6875 10.410156 -4.082031 9.609375 -3.53125 C 8.804688 -2.988281 7.988281 -2.53125 7.15625 -2.15625 C 6.488281 -1.851562 5.789062 -1.613281 5.0625 -1.4375 C 4.332031 -1.269531 3.609375 -1.234375 2.890625 -1.328125 C 2.179688 -1.429688 1.53125 -1.75 0.9375 -2.28125 C 0.0390625 -3.101562 -0.328125 -4.113281 -0.171875 -5.3125 C -0.046875 -6.257812 0.316406 -7.0625 0.921875 -7.71875 C 1.535156 -8.382812 2.304688 -8.835938 3.234375 -9.078125 C 4.003906 -9.242188 4.773438 -9.265625 5.546875 -9.140625 C 5.898438 -9.078125 6.222656 -8.957031 6.515625 -8.78125 C 6.785156 -8.570312 6.929688 -8.328125 6.953125 -8.046875 C 6.984375 -7.773438 6.878906 -7.515625 6.640625 -7.265625 C 6.148438 -6.828125 5.585938 -6.566406 4.953125 -6.484375 C 4.222656 -6.359375 3.5 -6.28125 2.78125 -6.25 C 2.425781 -6.25 2.175781 -6.175781 2.03125 -6.03125 C 1.894531 -5.882812 1.816406 -5.640625 1.796875 -5.296875 C 1.679688 -4.335938 1.984375 -3.554688 2.703125 -2.953125 C 3.160156 -2.585938 3.710938 -2.429688 4.359375 -2.484375 C 5.003906 -2.546875 5.6875 -2.722656 6.40625 -3.015625 C 7.132812 -3.304688 7.847656 -3.648438 8.546875 -4.046875 C 9.242188 -4.441406 9.875 -4.8125 10.4375 -5.15625 C 10.664062 -5.3125 10.875 -5.441406 11.0625 -5.546875 Z M 3.09375 -7.578125 C 3.09375 -7.566406 3.078125 -7.5625 3.046875 -7.5625 C 3.015625 -7.53125 2.972656 -7.492188 2.921875 -7.453125 C 2.878906 -7.410156 2.835938 -7.367188 2.796875 -7.328125 C 2.753906 -7.285156 2.734375 -7.253906 2.734375 -7.234375 C 2.742188 -7.179688 2.878906 -7.164062 3.140625 -7.1875 C 3.398438 -7.21875 3.6875 -7.265625 4 -7.328125 C 4.3125 -7.398438 4.570312 -7.488281 4.78125 -7.59375 C 5 -7.707031 5.066406 -7.84375 4.984375 -8 C 4.941406 -8.039062 4.890625 -8.078125 4.828125 -8.109375 C 4.773438 -8.148438 4.710938 -8.175781 4.640625 -8.1875 C 4.335938 -8.1875 4.0625 -8.128906 3.8125 -8.015625 C 3.5625 -7.898438 3.320312 -7.753906 3.09375 -7.578125 Z M 3.09375 -7.578125 "/></g></g></g><g fill="#004aad" fill-opacity="1"><g transform="translate(294.944862, 279.310998)"><g/></g></g><g clip-path="url(#5f28e6f833)"><g clip-path="url(#0a9ea6ced9)"><path fill="#004aad" d="M 133.777344 209.863281 L 141.492188 209.863281 L 141.492188 217.574219 L 133.777344 217.574219 Z M 133.777344 209.863281 " fill-opacity="1" fill-rule="nonzero"/></g></g></svg>