<svg xmlns="http://www.w3.org/2000/svg" xmlns:xlink="http://www.w3.org/1999/xlink" width="500" zoomAndPan="magnify" viewBox="0 0 375 374.999991" height="500" preserveAspectRatio="xMidYMid meet" version="1.0"><defs><g/><clipPath id="f1cd435c67"><path d="M 152.890625 64.433594 L 221.890625 64.433594 L 221.890625 197.183594 L 152.890625 197.183594 Z M 152.890625 64.433594 " clip-rule="nonzero"/></clipPath><clipPath id="2a7cdff692"><path d="M 257.601562 71.507812 L 276.21875 71.507812 L 276.21875 90.125 L 257.601562 90.125 Z M 257.601562 71.507812 " clip-rule="nonzero"/></clipPath><clipPath id="ee17f52f7e"><path d="M 266.910156 71.507812 C 261.769531 71.507812 257.601562 75.675781 257.601562 80.816406 C 257.601562 85.957031 261.769531 90.125 266.910156 90.125 C 272.050781 90.125 276.21875 85.957031 276.21875 80.816406 C 276.21875 75.675781 272.050781 71.507812 266.910156 71.507812 " clip-rule="nonzero"/></clipPath><clipPath id="c5e3ff9836"><path d="M 108.902344 204.308594 L 122.167969 204.308594 L 122.167969 217.574219 L 108.902344 217.574219 Z M 108.902344 204.308594 " clip-rule="nonzero"/></clipPath><clipPath id="70b4193c52"><path d="M 115.535156 204.308594 C 111.871094 204.308594 108.902344 207.277344 108.902344 210.941406 C 108.902344 214.605469 111.871094 217.574219 115.535156 217.574219 C 119.199219 217.574219 122.167969 214.605469 122.167969 210.941406 C 122.167969 207.277344 119.199219 204.308594 115.535156 204.308594 " clip-rule="nonzero"/></clipPath></defs><rect x="-37.5" width="450" fill="#ffffff" y="-37.499999" height="449.999989" fill-opacity="1"/><rect x="-37.5" width="450" fill="#ffffff" y="-37.499999" height="449.999989" fill-opacity="1"/><rect x="-37.5" width="450" fill="#fdfdfc" y="-37.499999" height="449.999989" fill-opacity="1"/><g clip-path="url(#f1cd435c67)"><path fill="#ff66c4" d="M 154.566406 95.90625 L 154.566406 102.554688 L 177.035156 88.421875 C 177.402344 88.195312 177.878906 88.277344 178.140625 88.617188 L 184.820312 97.222656 L 211.820312 82.949219 C 212.152344 82.773438 212.5625 82.84375 212.820312 83.121094 L 219.671875 90.453125 C 216.820312 76.480469 203.3125 66.175781 187.394531 66.175781 C 169.292969 66.175781 154.566406 79.511719 154.566406 95.90625 Z M 152.898438 104.128906 C 152.898438 104.109375 152.894531 104.089844 152.894531 104.070312 L 152.894531 95.90625 C 152.894531 78.585938 168.371094 64.5 187.394531 64.5 C 204.882812 64.5 219.613281 76.402344 221.660156 92.1875 C 221.71875 92.640625 221.402344 93.058594 220.949219 93.125 C 220.609375 93.402344 220.113281 93.375 219.8125 93.050781 L 212.035156 84.734375 L 174.046875 104.8125 C 173.921875 104.878906 173.789062 104.910156 173.660156 104.910156 C 173.359375 104.910156 173.066406 104.746094 172.917969 104.460938 C 172.703125 104.050781 172.859375 103.542969 173.269531 103.328125 L 183.316406 98.015625 L 177.285156 90.246094 L 154.171875 104.78125 C 154.136719 104.804688 154.097656 104.824219 154.058594 104.839844 C 154.050781 104.84375 154.042969 104.84375 154.035156 104.851562 C 153.996094 104.863281 153.957031 104.875 153.917969 104.886719 C 153.90625 104.886719 153.890625 104.890625 153.878906 104.894531 C 153.828125 104.902344 153.78125 104.910156 153.730469 104.910156 C 153.679688 104.910156 153.628906 104.902344 153.578125 104.894531 C 153.570312 104.890625 153.558594 104.890625 153.546875 104.886719 C 153.5 104.878906 153.457031 104.863281 153.414062 104.84375 C 153.402344 104.84375 153.394531 104.839844 153.386719 104.832031 C 153.347656 104.816406 153.3125 104.796875 153.277344 104.773438 C 153.269531 104.769531 153.261719 104.765625 153.253906 104.761719 C 153.214844 104.734375 153.179688 104.703125 153.144531 104.667969 C 153.136719 104.664062 153.132812 104.65625 153.125 104.648438 C 153.097656 104.621094 153.074219 104.589844 153.050781 104.554688 C 153.042969 104.546875 153.035156 104.539062 153.03125 104.53125 C 153.027344 104.523438 153.023438 104.519531 153.019531 104.515625 C 153.011719 104.5 153.003906 104.484375 152.996094 104.464844 C 152.980469 104.4375 152.964844 104.410156 152.953125 104.378906 C 152.941406 104.355469 152.9375 104.328125 152.929688 104.300781 C 152.921875 104.277344 152.914062 104.25 152.90625 104.222656 C 152.902344 104.191406 152.902344 104.160156 152.898438 104.128906 Z M 213.925781 122.171875 C 210.859375 122.316406 207.867188 122.972656 205.019531 124.128906 C 205.015625 124.132812 205.011719 124.132812 205.007812 124.136719 C 204.6875 124.265625 204.367188 124.402344 204.050781 124.546875 C 203.945312 124.59375 203.84375 124.648438 203.738281 124.695312 C 203.527344 124.796875 203.3125 124.894531 203.101562 125 C 202.976562 125.0625 202.859375 125.128906 202.734375 125.191406 C 202.546875 125.289062 202.355469 125.386719 202.171875 125.492188 C 202.042969 125.5625 201.917969 125.636719 201.789062 125.710938 C 201.613281 125.8125 201.4375 125.914062 201.261719 126.015625 C 201.128906 126.09375 201.003906 126.175781 200.875 126.261719 C 200.707031 126.363281 200.539062 126.46875 200.375 126.578125 C 200.242188 126.664062 200.113281 126.75 199.988281 126.839844 C 199.828125 126.949219 199.667969 127.058594 199.507812 127.171875 C 199.378906 127.265625 199.253906 127.359375 199.125 127.453125 C 198.972656 127.570312 198.816406 127.683594 198.664062 127.804688 C 198.539062 127.902344 198.414062 128 198.289062 128.101562 C 198.203125 128.171875 198.113281 128.246094 198.027344 128.316406 C 198.027344 128.328125 198.03125 128.339844 198.03125 128.351562 C 198.042969 128.4375 198.050781 128.519531 198.058594 128.605469 C 198.070312 128.703125 198.078125 128.804688 198.089844 128.902344 C 198.09375 128.992188 198.101562 129.078125 198.105469 129.160156 C 198.113281 129.261719 198.121094 129.359375 198.125 129.460938 C 198.132812 129.546875 198.132812 129.636719 198.136719 129.722656 C 198.140625 129.820312 198.144531 129.921875 198.144531 130.019531 C 198.144531 130.109375 198.144531 130.199219 198.144531 130.285156 C 198.144531 130.386719 198.144531 130.484375 198.144531 130.585938 C 198.140625 130.675781 198.136719 130.765625 198.132812 130.855469 C 198.128906 130.957031 198.125 131.054688 198.121094 131.15625 C 198.117188 131.246094 198.109375 131.339844 198.101562 131.429688 C 198.09375 131.53125 198.089844 131.628906 198.078125 131.730469 C 198.070312 131.824219 198.0625 131.917969 198.050781 132.007812 C 198.039062 132.109375 198.03125 132.210938 198.019531 132.3125 C 198.007812 132.40625 197.996094 132.5 197.980469 132.59375 C 197.96875 132.695312 197.953125 132.796875 197.9375 132.898438 C 197.921875 132.992188 197.90625 133.089844 197.890625 133.183594 C 197.871094 133.285156 197.855469 133.390625 197.835938 133.492188 C 197.816406 133.589844 197.800781 133.683594 197.78125 133.78125 C 197.757812 133.886719 197.738281 133.988281 197.714844 134.09375 C 197.691406 134.191406 197.671875 134.285156 197.648438 134.382812 C 197.621094 134.488281 197.597656 134.59375 197.570312 134.699219 C 197.546875 134.796875 197.523438 134.894531 197.496094 134.992188 C 197.46875 135.101562 197.441406 135.207031 197.410156 135.3125 C 197.382812 135.410156 197.351562 135.511719 197.324219 135.609375 C 197.292969 135.71875 197.257812 135.824219 197.226562 135.933594 C 197.195312 136.035156 197.164062 136.132812 197.132812 136.234375 C 197.09375 136.34375 197.058594 136.453125 197.023438 136.5625 C 196.988281 136.664062 196.953125 136.765625 196.917969 136.867188 C 196.878906 136.976562 196.839844 137.085938 196.796875 137.199219 C 196.761719 137.300781 196.722656 137.402344 196.683594 137.503906 C 196.640625 137.617188 196.597656 137.730469 196.550781 137.84375 C 196.511719 137.945312 196.46875 138.050781 196.425781 138.152344 C 196.382812 138.269531 196.332031 138.382812 196.285156 138.496094 C 196.242188 138.601562 196.199219 138.707031 196.152344 138.8125 C 196.101562 138.925781 196.050781 139.042969 195.996094 139.160156 C 195.949219 139.265625 195.902344 139.371094 195.851562 139.476562 C 195.800781 139.59375 195.742188 139.710938 195.6875 139.832031 C 195.636719 139.9375 195.585938 140.042969 195.535156 140.148438 C 195.476562 140.269531 195.417969 140.390625 195.355469 140.511719 C 195.304688 140.617188 195.25 140.726562 195.195312 140.835938 C 195.132812 140.953125 195.070312 141.078125 195.003906 141.203125 C 194.949219 141.308594 194.890625 141.417969 194.832031 141.527344 C 194.765625 141.652344 194.699219 141.777344 194.628906 141.902344 C 194.570312 142.011719 194.511719 142.121094 194.453125 142.230469 C 194.378906 142.355469 194.308594 142.484375 194.234375 142.613281 C 194.171875 142.722656 194.109375 142.832031 194.046875 142.945312 C 193.972656 143.074219 193.894531 143.203125 193.816406 143.335938 C 193.75 143.445312 193.6875 143.554688 193.621094 143.667969 C 193.539062 143.800781 193.457031 143.933594 193.375 144.066406 C 193.308594 144.179688 193.238281 144.289062 193.171875 144.402344 C 193.085938 144.539062 192.996094 144.675781 192.910156 144.816406 C 192.839844 144.925781 192.773438 145.035156 192.699219 145.148438 C 192.609375 145.289062 192.515625 145.433594 192.425781 145.574219 C 192.351562 145.683594 192.28125 145.792969 192.207031 145.90625 C 192.109375 146.054688 192.011719 146.199219 191.910156 146.351562 C 191.839844 146.457031 191.765625 146.566406 191.695312 146.671875 C 191.585938 146.832031 191.472656 146.992188 191.363281 147.152344 C 191.292969 147.253906 191.226562 147.351562 191.15625 147.453125 C 191.03125 147.632812 190.902344 147.816406 190.773438 147.996094 C 190.714844 148.082031 190.65625 148.164062 190.597656 148.246094 C 190.40625 148.511719 190.210938 148.78125 190.015625 149.050781 C 189.867188 149.253906 189.714844 149.460938 189.5625 149.667969 C 189.515625 149.734375 189.460938 149.800781 189.414062 149.867188 C 189.304688 150.011719 189.199219 150.15625 189.085938 150.300781 C 189.085938 150.304688 189.082031 150.308594 189.082031 150.308594 C 192.507812 150.035156 195.804688 149.125 198.882812 147.605469 C 201.886719 146.113281 204.570312 144.089844 206.851562 141.589844 C 211.734375 136.246094 214.226562 129.375 213.925781 122.171875 Z M 185.554688 150.296875 C 185.445312 150.152344 185.339844 150.007812 185.234375 149.863281 C 185.183594 149.796875 185.132812 149.726562 185.082031 149.65625 C 184.917969 149.433594 184.753906 149.210938 184.597656 148.988281 C 184.40625 148.722656 184.21875 148.457031 184.03125 148.195312 C 183.976562 148.113281 183.917969 148.03125 183.863281 147.949219 C 183.738281 147.769531 183.613281 147.589844 183.492188 147.414062 C 183.421875 147.3125 183.355469 147.210938 183.289062 147.109375 C 183.179688 146.953125 183.074219 146.796875 182.96875 146.640625 C 182.898438 146.53125 182.832031 146.425781 182.761719 146.320312 C 182.664062 146.171875 182.566406 146.023438 182.46875 145.878906 C 182.398438 145.765625 182.332031 145.660156 182.261719 145.550781 C 182.171875 145.410156 182.078125 145.265625 181.992188 145.125 C 181.921875 145.015625 181.855469 144.90625 181.789062 144.796875 C 181.703125 144.65625 181.617188 144.519531 181.535156 144.382812 C 181.46875 144.273438 181.402344 144.164062 181.335938 144.054688 C 181.257812 143.921875 181.175781 143.785156 181.097656 143.652344 C 181.03125 143.539062 180.96875 143.433594 180.90625 143.324219 C 180.832031 143.191406 180.753906 143.058594 180.679688 142.929688 C 180.621094 142.820312 180.558594 142.710938 180.5 142.601562 C 180.425781 142.472656 180.355469 142.34375 180.285156 142.214844 C 180.226562 142.109375 180.171875 142 180.113281 141.894531 C 180.046875 141.765625 179.976562 141.640625 179.910156 141.511719 C 179.855469 141.40625 179.800781 141.300781 179.746094 141.191406 C 179.683594 141.066406 179.621094 140.941406 179.558594 140.816406 C 179.503906 140.710938 179.453125 140.605469 179.402344 140.5 C 179.34375 140.378906 179.28125 140.257812 179.226562 140.132812 C 179.175781 140.027344 179.128906 139.925781 179.078125 139.820312 C 179.023438 139.699219 178.964844 139.578125 178.914062 139.457031 C 178.867188 139.351562 178.820312 139.25 178.777344 139.148438 C 178.722656 139.027344 178.671875 138.910156 178.621094 138.789062 C 178.578125 138.6875 178.535156 138.585938 178.492188 138.484375 C 178.445312 138.363281 178.394531 138.25 178.347656 138.128906 C 178.308594 138.03125 178.269531 137.925781 178.230469 137.828125 C 178.183594 137.710938 178.140625 137.59375 178.097656 137.480469 C 178.0625 137.378906 178.023438 137.28125 177.988281 137.179688 C 177.945312 137.066406 177.90625 136.949219 177.867188 136.835938 C 177.832031 136.738281 177.800781 136.640625 177.765625 136.542969 C 177.730469 136.425781 177.691406 136.316406 177.65625 136.203125 C 177.625 136.105469 177.597656 136.007812 177.566406 135.910156 C 177.53125 135.800781 177.5 135.6875 177.464844 135.574219 C 177.4375 135.480469 177.410156 135.382812 177.386719 135.285156 C 177.355469 135.175781 177.324219 135.066406 177.296875 134.957031 C 177.273438 134.859375 177.246094 134.765625 177.222656 134.671875 C 177.195312 134.5625 177.171875 134.453125 177.144531 134.34375 C 177.125 134.25 177.101562 134.15625 177.082031 134.0625 C 177.058594 133.957031 177.039062 133.847656 177.015625 133.738281 C 177 133.644531 176.980469 133.554688 176.960938 133.460938 C 176.941406 133.355469 176.925781 133.25 176.90625 133.140625 C 176.890625 133.050781 176.875 132.960938 176.863281 132.867188 C 176.84375 132.761719 176.832031 132.65625 176.816406 132.550781 C 176.804688 132.460938 176.792969 132.371094 176.78125 132.28125 C 176.769531 132.175781 176.757812 132.070312 176.746094 131.96875 C 176.738281 131.878906 176.726562 131.789062 176.71875 131.699219 C 176.710938 131.597656 176.703125 131.492188 176.695312 131.390625 C 176.6875 131.304688 176.683594 131.214844 176.679688 131.128906 C 176.671875 131.023438 176.667969 130.921875 176.664062 130.820312 C 176.660156 130.734375 176.65625 130.648438 176.65625 130.558594 C 176.652344 130.457031 176.652344 130.355469 176.652344 130.253906 C 176.652344 130.167969 176.652344 130.085938 176.652344 130 C 176.65625 129.898438 176.660156 129.796875 176.660156 129.695312 C 176.664062 129.613281 176.667969 129.527344 176.671875 129.445312 C 176.675781 129.34375 176.683594 129.242188 176.691406 129.144531 C 176.695312 129.058594 176.699219 128.976562 176.707031 128.894531 C 176.714844 128.792969 176.726562 128.691406 176.738281 128.59375 C 176.746094 128.511719 176.753906 128.433594 176.761719 128.351562 C 176.765625 128.339844 176.765625 128.332031 176.765625 128.320312 C 176.675781 128.246094 176.585938 128.171875 176.496094 128.101562 C 176.371094 127.996094 176.242188 127.894531 176.109375 127.792969 C 175.957031 127.671875 175.800781 127.554688 175.644531 127.441406 C 175.515625 127.34375 175.382812 127.246094 175.25 127.152344 C 175.089844 127.035156 174.929688 126.925781 174.765625 126.816406 C 174.632812 126.726562 174.5 126.632812 174.367188 126.542969 C 174.199219 126.4375 174.03125 126.328125 173.863281 126.226562 C 173.726562 126.140625 173.59375 126.058594 173.460938 125.976562 C 173.285156 125.871094 173.105469 125.769531 172.929688 125.667969 C 172.796875 125.59375 172.667969 125.515625 172.53125 125.445312 C 172.34375 125.339844 172.152344 125.242188 171.964844 125.144531 C 171.835938 125.082031 171.710938 125.011719 171.582031 124.949219 C 171.371094 124.84375 171.152344 124.742188 170.9375 124.644531 C 170.828125 124.59375 170.722656 124.539062 170.613281 124.492188 C 170.289062 124.347656 169.957031 124.207031 169.625 124.074219 C 166.824219 122.949219 163.882812 122.3125 160.863281 122.171875 C 160.5625 129.375 163.058594 136.246094 167.9375 141.589844 C 170.15625 144.019531 172.75 146 175.652344 147.472656 C 178.75 149.046875 182.078125 150 185.554688 150.296875 Z M 170.914062 122.792969 C 170.996094 122.828125 171.078125 122.867188 171.164062 122.90625 C 171.269531 122.949219 171.378906 123 171.484375 123.046875 C 171.71875 123.15625 171.953125 123.265625 172.183594 123.378906 C 172.273438 123.421875 172.363281 123.464844 172.453125 123.507812 C 172.765625 123.667969 173.074219 123.828125 173.382812 123.996094 C 173.433594 124.027344 173.488281 124.058594 173.539062 124.085938 C 173.796875 124.230469 174.050781 124.375 174.300781 124.527344 C 174.398438 124.585938 174.496094 124.644531 174.59375 124.703125 C 174.804688 124.835938 175.015625 124.96875 175.226562 125.105469 C 175.320312 125.167969 175.414062 125.226562 175.507812 125.289062 C 175.765625 125.464844 176.023438 125.644531 176.28125 125.828125 C 176.3125 125.847656 176.34375 125.871094 176.378906 125.894531 C 176.628906 126.074219 176.875 126.261719 177.117188 126.449219 C 177.125 126.417969 177.136719 126.390625 177.144531 126.359375 C 177.207031 126.121094 177.269531 125.886719 177.339844 125.652344 C 177.34375 125.644531 177.347656 125.636719 177.351562 125.628906 C 177.417969 125.402344 177.492188 125.179688 177.570312 124.960938 C 177.589844 124.902344 177.609375 124.84375 177.632812 124.789062 C 177.710938 124.566406 177.792969 124.34375 177.882812 124.128906 C 177.886719 124.113281 177.890625 124.101562 177.898438 124.089844 C 177.980469 123.882812 178.070312 123.675781 178.160156 123.476562 C 178.183594 123.421875 178.207031 123.367188 178.230469 123.3125 C 178.324219 123.105469 178.421875 122.898438 178.519531 122.695312 C 178.527344 122.683594 178.53125 122.667969 178.539062 122.652344 C 178.632812 122.460938 178.730469 122.269531 178.828125 122.082031 C 178.851562 122.03125 178.878906 121.984375 178.902344 121.9375 C 179.003906 121.742188 179.109375 121.546875 179.214844 121.359375 C 179.21875 121.347656 179.226562 121.335938 179.234375 121.324219 C 179.335938 121.140625 179.4375 120.960938 179.539062 120.785156 C 179.550781 120.761719 179.5625 120.742188 179.574219 120.71875 C 177.699219 119 175.613281 117.535156 173.363281 116.355469 C 172.296875 118.398438 171.476562 120.558594 170.914062 122.792969 Z M 182.6875 118.824219 C 182.222656 119.570312 181.78125 120.277344 181.351562 120.996094 C 180.8125 121.90625 180.277344 122.855469 179.8125 123.867188 C 179.214844 125.164062 178.726562 126.566406 178.484375 128.101562 C 178.382812 128.769531 178.328125 129.449219 178.324219 130.148438 C 178.304688 133.640625 179.558594 137.566406 182.167969 142.160156 C 182.296875 142.390625 182.429688 142.625 182.566406 142.855469 C 182.84375 143.324219 183.128906 143.796875 183.433594 144.277344 C 184.1875 145.476562 185.027344 146.71875 185.953125 148.007812 C 186.148438 148.28125 186.347656 148.554688 186.550781 148.828125 C 186.609375 148.910156 186.671875 148.992188 186.730469 149.074219 C 186.886719 149.285156 187.046875 149.496094 187.207031 149.710938 C 187.242188 149.761719 187.28125 149.808594 187.316406 149.859375 C 187.457031 149.679688 187.589844 149.503906 187.722656 149.328125 C 187.757812 149.285156 187.789062 149.242188 187.824219 149.199219 C 187.933594 149.046875 188.042969 148.898438 188.152344 148.753906 C 188.191406 148.707031 188.230469 148.65625 188.265625 148.605469 C 188.402344 148.421875 188.535156 148.242188 188.664062 148.0625 L 188.667969 148.058594 C 188.855469 147.800781 189.039062 147.542969 189.222656 147.289062 C 193.941406 140.683594 196.289062 135.324219 196.457031 130.710938 C 196.464844 130.523438 196.46875 130.335938 196.46875 130.152344 C 196.464844 129.976562 196.464844 129.800781 196.457031 129.628906 C 196.4375 129.109375 196.386719 128.597656 196.308594 128.097656 C 195.910156 125.519531 194.8125 123.292969 193.640625 121.269531 C 193.5625 121.132812 193.484375 121 193.40625 120.863281 C 193.015625 120.199219 192.613281 119.546875 192.191406 118.855469 C 190.4375 116.007812 188.53125 112.90625 187.480469 108.964844 C 186.398438 112.898438 184.464844 115.988281 182.6875 118.824219 Z M 195.1875 120.597656 C 195.203125 120.625 195.214844 120.648438 195.230469 120.671875 C 195.328125 120.847656 195.425781 121.019531 195.523438 121.195312 C 195.539062 121.226562 195.554688 121.253906 195.570312 121.285156 C 195.679688 121.480469 195.785156 121.679688 195.890625 121.878906 C 195.914062 121.929688 195.941406 121.976562 195.964844 122.023438 C 196.058594 122.210938 196.152344 122.394531 196.246094 122.585938 C 196.257812 122.609375 196.269531 122.636719 196.285156 122.660156 C 196.382812 122.867188 196.480469 123.078125 196.574219 123.289062 C 196.597656 123.34375 196.621094 123.394531 196.644531 123.445312 C 196.730469 123.644531 196.816406 123.847656 196.898438 124.050781 C 196.90625 124.070312 196.914062 124.089844 196.921875 124.113281 C 197.011719 124.332031 197.09375 124.554688 197.175781 124.777344 C 197.191406 124.835938 197.214844 124.890625 197.234375 124.945312 C 197.308594 125.164062 197.378906 125.382812 197.445312 125.601562 C 197.453125 125.617188 197.457031 125.632812 197.460938 125.648438 C 197.53125 125.878906 197.59375 126.117188 197.65625 126.355469 C 197.664062 126.382812 197.671875 126.410156 197.679688 126.441406 C 197.914062 126.261719 198.152344 126.082031 198.390625 125.910156 C 198.398438 125.902344 198.410156 125.894531 198.417969 125.890625 C 198.6875 125.695312 198.964844 125.503906 199.242188 125.316406 C 199.328125 125.257812 199.417969 125.203125 199.507812 125.144531 C 199.714844 125.007812 199.925781 124.875 200.136719 124.742188 C 200.230469 124.683594 200.324219 124.625 200.417969 124.570312 C 200.664062 124.421875 200.910156 124.277344 201.160156 124.136719 C 201.210938 124.105469 201.265625 124.074219 201.316406 124.046875 C 201.617188 123.878906 201.921875 123.71875 202.230469 123.5625 C 202.316406 123.519531 202.398438 123.480469 202.484375 123.4375 C 202.714844 123.324219 202.945312 123.214844 203.179688 123.105469 C 203.28125 123.058594 203.382812 123.011719 203.488281 122.964844 C 203.570312 122.929688 203.648438 122.890625 203.726562 122.855469 C 203.167969 120.601562 202.339844 118.417969 201.265625 116.355469 C 199.066406 117.507812 197.027344 118.929688 195.1875 120.597656 Z M 208.085938 142.722656 C 205.664062 145.378906 202.816406 147.527344 199.621094 149.109375 C 196.207031 150.796875 192.542969 151.773438 188.730469 152.015625 C 188.566406 152.027344 188.398438 152.035156 188.230469 152.042969 L 188.230469 186.148438 C 188.230469 186.609375 187.855469 186.984375 187.394531 186.984375 C 186.933594 186.984375 186.558594 186.609375 186.558594 186.148438 L 186.558594 152.042969 C 186.335938 152.035156 186.113281 152.023438 185.886719 152.007812 C 182.027344 151.734375 178.328125 150.714844 174.894531 148.96875 C 171.816406 147.402344 169.058594 145.304688 166.703125 142.722656 C 161.332031 136.835938 158.679688 129.207031 159.242188 121.25 C 159.273438 120.800781 159.640625 120.464844 160.089844 120.46875 C 163.269531 120.523438 166.378906 121.097656 169.347656 122.175781 C 170.011719 119.609375 170.996094 117.144531 172.28125 114.828125 C 172.5 114.441406 172.980469 114.289062 173.378906 114.484375 C 175.949219 115.746094 178.324219 117.347656 180.449219 119.257812 C 180.722656 118.8125 181 118.367188 181.273438 117.929688 C 183.914062 113.714844 186.640625 109.351562 186.667969 102.5625 C 186.671875 102.097656 187.050781 101.730469 187.507812 101.726562 C 187.972656 101.730469 188.34375 102.105469 188.339844 102.570312 C 188.316406 109.355469 191.007812 113.738281 193.613281 117.976562 C 193.847656 118.355469 194.082031 118.742188 194.316406 119.132812 C 196.410156 117.277344 198.734375 115.714844 201.25 114.484375 C 201.648438 114.289062 202.128906 114.441406 202.347656 114.828125 C 203.644531 117.164062 204.632812 119.648438 205.292969 122.226562 C 208.308594 121.121094 211.46875 120.523438 214.699219 120.46875 C 215.148438 120.460938 215.519531 120.800781 215.550781 121.25 C 216.113281 129.207031 213.460938 136.835938 208.085938 142.722656 Z M 173.390625 159.222656 C 171.691406 158.621094 169.859375 157.972656 168.0625 156.839844 C 168.773438 158.84375 169.003906 160.777344 169.21875 162.570312 C 169.855469 167.910156 170.359375 172.160156 182.847656 175.351562 C 182.472656 162.433594 178.449219 161.011719 173.390625 159.222656 Z M 173.945312 157.640625 C 179.296875 159.535156 184.347656 161.324219 184.542969 176.417969 C 184.546875 176.675781 184.429688 176.921875 184.230469 177.082031 C 184.082031 177.203125 183.894531 177.265625 183.707031 177.265625 C 183.644531 177.265625 183.578125 177.257812 183.515625 177.242188 C 168.867188 173.753906 168.230469 168.417969 167.558594 162.769531 C 167.199219 159.753906 166.828125 156.632812 164.261719 153.421875 C 164.140625 153.269531 164.078125 153.082031 164.078125 152.898438 C 164.078125 152.652344 164.1875 152.410156 164.390625 152.246094 C 164.753906 151.953125 165.277344 152.011719 165.570312 152.375 C 168.132812 155.582031 171.085938 156.628906 173.945312 157.640625 Z M 206.726562 156.839844 C 204.933594 157.972656 203.101562 158.621094 201.402344 159.222656 C 196.34375 161.011719 192.320312 162.433594 191.941406 175.351562 C 204.429688 172.160156 204.9375 167.910156 205.570312 162.570312 C 205.785156 160.777344 206.015625 158.84375 206.726562 156.839844 Z M 210.398438 152.246094 C 210.605469 152.410156 210.710938 152.652344 210.710938 152.898438 C 210.710938 153.082031 210.652344 153.269531 210.527344 153.421875 C 207.964844 156.632812 207.59375 159.753906 207.234375 162.769531 C 206.558594 168.417969 205.921875 173.753906 191.277344 177.242188 C 191.214844 177.257812 191.148438 177.265625 191.085938 177.265625 C 190.894531 177.265625 190.710938 177.203125 190.5625 177.082031 C 190.359375 176.921875 190.246094 176.675781 190.25 176.417969 C 190.441406 161.324219 195.496094 159.535156 200.84375 157.640625 C 203.703125 156.628906 206.660156 155.582031 209.222656 152.375 C 209.511719 152.011719 210.039062 151.953125 210.398438 152.246094 Z M 221.898438 127.277344 L 221.898438 165.707031 C 221.898438 183.027344 206.417969 197.117188 187.394531 197.117188 C 168.371094 197.117188 152.894531 183.027344 152.894531 165.707031 L 152.894531 114.199219 C 152.894531 113.738281 153.265625 113.363281 153.730469 113.363281 C 154.191406 113.363281 154.566406 113.738281 154.566406 114.199219 L 154.566406 165.707031 C 154.566406 182.101562 169.292969 195.4375 187.394531 195.4375 C 205.496094 195.4375 220.226562 182.101562 220.226562 165.707031 L 220.226562 127.277344 C 220.226562 126.816406 220.597656 126.441406 221.0625 126.441406 C 221.523438 126.441406 221.898438 126.816406 221.898438 127.277344 " fill-opacity="1" fill-rule="nonzero"/></g><g clip-path="url(#2a7cdff692)"><g clip-path="url(#ee17f52f7e)"><path fill="#ff66c4" d="M 257.601562 71.507812 L 276.21875 71.507812 L 276.21875 90.125 L 257.601562 90.125 Z M 257.601562 71.507812 " fill-opacity="1" fill-rule="nonzero"/></g></g><g clip-path="url(#c5e3ff9836)"><g clip-path="url(#70b4193c52)"><path fill="#004aad" d="M 108.902344 204.308594 L 122.167969 204.308594 L 122.167969 217.574219 L 108.902344 217.574219 Z M 108.902344 204.308594 " fill-opacity="1" fill-rule="nonzero"/></g></g><g fill="#7dedff" fill-opacity="1"><g transform="translate(50.171073, 292.179854)"><g><path d="M 48.671875 -51.390625 C 49.140625 -51.265625 49.382812 -50.972656 49.40625 -50.515625 C 49.425781 -50.085938 49.425781 -49.679688 49.40625 -49.296875 C 49.28125 -47.492188 49.160156 -45.695312 49.046875 -43.90625 C 48.859375 -41.207031 48.675781 -38.503906 48.5 -35.796875 C 48.28125 -32.359375 48.078125 -28.925781 47.890625 -25.5 C 47.660156 -21.195312 47.457031 -16.890625 47.28125 -12.578125 C 47.175781 -10.304688 47.113281 -8.03125 47.09375 -5.75 C 47.039062 -3.394531 46.984375 -1.054688 46.921875 1.265625 C 46.785156 4.992188 46.738281 8.726562 46.78125 12.46875 C 46.820312 13.476562 46.414062 13.925781 45.5625 13.8125 C 45 13.726562 44.671875 13.425781 44.578125 12.90625 C 44.535156 12.632812 44.515625 12.363281 44.515625 12.09375 C 44.492188 10.382812 44.472656 8.6875 44.453125 7 C 44.335938 2.945312 44.28125 -1.09375 44.28125 -5.125 C 44.320312 -8.425781 44.421875 -11.726562 44.578125 -15.03125 C 44.628906 -16.3125 44.6875 -17.59375 44.75 -18.875 C 44.800781 -20.269531 44.859375 -21.664062 44.921875 -23.0625 C 44.972656 -23.945312 45.007812 -24.832031 45.03125 -25.71875 C 45.03125 -25.738281 45.03125 -25.757812 45.03125 -25.78125 C 45.125 -26.476562 45.066406 -27.164062 44.859375 -27.84375 C 44.671875 -27.207031 44.5 -26.59375 44.34375 -26 C 43.332031 -22.40625 42.210938 -18.851562 40.984375 -15.34375 C 39.867188 -12.226562 38.640625 -9.171875 37.296875 -6.171875 C 35.960938 -3.171875 34.457031 -0.242188 32.78125 2.609375 C 31.644531 4.523438 30.40625 6.363281 29.0625 8.125 C 27.726562 9.882812 26.253906 11.546875 24.640625 13.109375 C 23.179688 14.566406 21.582031 15.835938 19.84375 16.921875 C 18.09375 17.984375 16.191406 18.5625 14.140625 18.65625 C 12.203125 18.75 10.484375 18.394531 8.984375 17.59375 C 7.492188 16.789062 6.1875 15.597656 5.0625 14.015625 C 3.738281 12.078125 2.738281 9.984375 2.0625 7.734375 C 1.3125 5.378906 0.785156 2.992188 0.484375 0.578125 C 0.179688 -1.828125 0.03125 -4.253906 0.03125 -6.703125 C 0.0078125 -13.273438 0.832031 -19.71875 2.5 -26.03125 C 2.945312 -27.632812 3.453125 -29.222656 4.015625 -30.796875 C 4.578125 -32.367188 5.238281 -33.898438 6 -35.390625 C 6.519531 -36.390625 7.148438 -37.320312 7.890625 -38.1875 C 8.660156 -39.039062 9.628906 -39.367188 10.796875 -39.171875 C 10.890625 -39.140625 10.976562 -39.097656 11.0625 -39.046875 C 11.15625 -39.003906 11.210938 -38.925781 11.234375 -38.8125 C 11.265625 -38.695312 11.269531 -38.59375 11.25 -38.5 C 11.238281 -38.40625 11.203125 -38.335938 11.140625 -38.296875 C 10.304688 -37.660156 9.628906 -36.914062 9.109375 -36.0625 C 8.597656 -35.21875 8.160156 -34.34375 7.796875 -33.4375 C 6.742188 -31.050781 5.878906 -28.617188 5.203125 -26.140625 C 4.523438 -23.671875 3.976562 -21.164062 3.5625 -18.625 C 2.582031 -12.695312 2.382812 -6.71875 2.96875 -0.6875 C 3.238281 2.707031 4.003906 6 5.265625 9.1875 C 5.960938 11.082031 6.953125 12.796875 8.234375 14.328125 C 8.867188 15.085938 9.59375 15.726562 10.40625 16.25 C 12.007812 17.21875 13.695312 17.441406 15.46875 16.921875 C 16.75 16.472656 17.925781 15.851562 19 15.0625 C 20.488281 13.988281 21.863281 12.789062 23.125 11.46875 C 24.394531 10.15625 25.578125 8.769531 26.671875 7.3125 C 28.328125 5.101562 29.820312 2.796875 31.15625 0.390625 C 32.5 -2.003906 33.738281 -4.46875 34.875 -7 C 37.113281 -12.070312 39.015625 -17.257812 40.578125 -22.5625 C 42.148438 -27.875 43.460938 -33.265625 44.515625 -38.734375 C 44.984375 -41.160156 45.425781 -43.570312 45.84375 -45.96875 C 46.019531 -47.0625 46.207031 -48.148438 46.40625 -49.234375 C 46.425781 -49.359375 46.445312 -49.476562 46.46875 -49.59375 C 46.488281 -49.738281 46.515625 -49.878906 46.546875 -50.015625 C 46.742188 -51.273438 47.453125 -51.734375 48.671875 -51.390625 Z M 44.828125 -32.828125 C 44.804688 -32.828125 44.796875 -32.828125 44.796875 -32.828125 C 44.796875 -32.828125 44.796875 -32.820312 44.796875 -32.8125 C 44.796875 -32.800781 44.800781 -32.789062 44.8125 -32.78125 C 44.820312 -32.769531 44.835938 -32.765625 44.859375 -32.765625 C 44.835938 -32.785156 44.828125 -32.796875 44.828125 -32.796875 C 44.828125 -32.796875 44.828125 -32.804688 44.828125 -32.828125 Z M 44.890625 -32.828125 C 44.890625 -32.859375 44.890625 -32.882812 44.890625 -32.90625 C 44.890625 -32.882812 44.890625 -32.875 44.890625 -32.875 C 44.890625 -32.84375 44.890625 -32.828125 44.890625 -32.828125 Z M 44.890625 -32.828125 "/></g></g></g><g fill="#7dedff" fill-opacity="1"><g transform="translate(99.987493, 292.179854)"><g><path d="M 13.125 -6.109375 C 13.9375 -7.398438 14.421875 -8.21875 14.578125 -8.5625 C 14.734375 -8.914062 14.851562 -8.898438 14.9375 -8.515625 C 15.03125 -8.140625 14.769531 -7.28125 14.15625 -5.9375 C 13.539062 -4.601562 12.773438 -3.570312 11.859375 -2.84375 C 10.953125 -2.125 10.101562 -1.859375 9.3125 -2.046875 C 8.53125 -2.234375 7.96875 -2.78125 7.625 -3.6875 C 7.289062 -4.59375 7.191406 -5.734375 7.328125 -7.109375 C 7.328125 -7.128906 7.335938 -7.1875 7.359375 -7.28125 C 7.378906 -7.519531 7.414062 -7.863281 7.46875 -8.3125 C 7.53125 -8.769531 7.578125 -9.238281 7.609375 -9.71875 C 7.640625 -10.207031 7.625 -10.609375 7.5625 -10.921875 C 7.5 -11.242188 7.351562 -11.359375 7.125 -11.265625 C 6.5625 -10.960938 6.015625 -10.363281 5.484375 -9.46875 C 4.953125 -8.570312 4.46875 -7.632812 4.03125 -6.65625 C 3.59375 -5.675781 3.285156 -4.882812 3.109375 -4.28125 C 3.035156 -4.09375 2.96875 -3.894531 2.90625 -3.6875 C 2.8125 -3.40625 2.707031 -3.128906 2.59375 -2.859375 C 2.28125 -2.066406 1.742188 -1.757812 0.984375 -1.9375 C 0.554688 -2.03125 0.304688 -2.289062 0.234375 -2.71875 C 0.210938 -3.039062 0.203125 -3.351562 0.203125 -3.65625 C 0.203125 -3.84375 0.191406 -4.015625 0.171875 -4.171875 C 0.128906 -6.523438 0.0703125 -8.890625 0 -11.265625 C 0.0195312 -11.546875 0.140625 -11.738281 0.359375 -11.84375 C 0.585938 -11.945312 0.851562 -12 1.15625 -12 C 1.382812 -12 1.601562 -11.929688 1.8125 -11.796875 C 2.019531 -11.671875 2.148438 -11.410156 2.203125 -11.015625 C 2.222656 -10.878906 2.234375 -10.738281 2.234375 -10.59375 C 2.253906 -10.519531 2.265625 -10.453125 2.265625 -10.390625 C 2.304688 -10.066406 2.328125 -9.785156 2.328125 -9.546875 C 2.328125 -9.203125 2.347656 -8.96875 2.390625 -8.84375 C 2.441406 -8.71875 2.546875 -8.722656 2.703125 -8.859375 C 2.859375 -8.992188 3.109375 -9.320312 3.453125 -9.84375 C 4.054688 -10.769531 4.804688 -11.554688 5.703125 -12.203125 C 6.515625 -12.785156 7.40625 -13.03125 8.375 -12.9375 C 9.207031 -12.851562 9.769531 -12.410156 10.0625 -11.609375 C 10.175781 -11.210938 10.234375 -10.8125 10.234375 -10.40625 C 10.234375 -10 10.207031 -9.585938 10.15625 -9.171875 C 10.132812 -8.742188 10.101562 -8.3125 10.0625 -7.875 C 10.03125 -7.738281 10.003906 -7.597656 9.984375 -7.453125 C 9.847656 -5.941406 9.894531 -4.929688 10.125 -4.421875 C 10.351562 -3.910156 10.707031 -3.738281 11.1875 -3.90625 C 11.664062 -4.082031 12.3125 -4.816406 13.125 -6.109375 Z M 13.125 -6.109375 "/></g></g></g><g fill="#7dedff" fill-opacity="1"><g transform="translate(114.340643, 292.179854)"><g><path d="M 8.234375 -6.4375 C 7.910156 -5.757812 7.351562 -5.007812 6.5625 -4.1875 C 5.769531 -3.363281 4.875 -2.835938 3.875 -2.609375 C 2.875 -2.390625 1.921875 -2.738281 1.015625 -3.65625 C 0.660156 -4.050781 0.398438 -4.507812 0.234375 -5.03125 C 0.078125 -5.5625 0.0195312 -6.078125 0.0625 -6.578125 C 0.0625 -6.722656 0.0625 -6.898438 0.0625 -7.109375 C 0.0625 -7.648438 0.0820312 -8.273438 0.125 -8.984375 C 0.175781 -9.691406 0.285156 -10.332031 0.453125 -10.90625 C 0.617188 -11.476562 0.875 -11.820312 1.21875 -11.9375 C 2.226562 -12.1875 2.773438 -11.835938 2.859375 -10.890625 C 2.859375 -10.578125 2.847656 -10.269531 2.828125 -9.96875 C 2.804688 -9.8125 2.796875 -9.660156 2.796875 -9.515625 C 2.773438 -9.078125 2.753906 -8.632812 2.734375 -8.1875 C 2.734375 -7.84375 2.71875 -7.492188 2.6875 -7.140625 C 2.664062 -5.609375 3.007812 -4.695312 3.71875 -4.40625 C 4.425781 -4.113281 5.234375 -4.421875 6.140625 -5.328125 C 7.046875 -6.242188 7.640625 -7 7.921875 -7.59375 C 8.203125 -8.195312 8.40625 -8.320312 8.53125 -7.96875 C 8.664062 -7.625 8.566406 -7.113281 8.234375 -6.4375 Z M 2.65625 -15.203125 C 2.507812 -15.085938 2.335938 -15.015625 2.140625 -14.984375 C 1.953125 -14.953125 1.785156 -14.96875 1.640625 -15.03125 C 1.515625 -15.125 1.4375 -15.242188 1.40625 -15.390625 C 1.375 -15.546875 1.359375 -15.734375 1.359375 -15.953125 C 1.359375 -15.992188 1.367188 -16.035156 1.390625 -16.078125 C 1.410156 -16.265625 1.460938 -16.453125 1.546875 -16.640625 C 1.753906 -17.148438 2.191406 -17.382812 2.859375 -17.34375 C 3.085938 -17.3125 3.269531 -17.21875 3.40625 -17.0625 C 3.539062 -16.90625 3.566406 -16.71875 3.484375 -16.5 C 3.328125 -15.976562 3.050781 -15.546875 2.65625 -15.203125 Z M 2.65625 -15.203125 "/></g></g></g><g fill="#7dedff" fill-opacity="1"><g transform="translate(122.521446, 292.179854)"><g><path d="M 14.234375 -8.046875 C 14.398438 -8.003906 14.457031 -7.863281 14.40625 -7.625 C 14.363281 -7.394531 14.285156 -7.140625 14.171875 -6.859375 C 14.054688 -6.578125 13.953125 -6.359375 13.859375 -6.203125 C 13.835938 -6.148438 13.816406 -6.113281 13.796875 -6.09375 C 12.296875 -3 11.082031 0.257812 10.15625 3.6875 C 9.226562 7.125 8.484375 10.53125 7.921875 13.90625 C 7.660156 15.28125 7.425781 16.644531 7.21875 18 C 7.0625 18.925781 6.898438 19.851562 6.734375 20.78125 C 6.691406 21.113281 6.617188 21.425781 6.515625 21.71875 C 6.378906 22.207031 6.03125 22.429688 5.46875 22.390625 C 4.914062 22.347656 4.617188 22.078125 4.578125 21.578125 C 4.523438 21.210938 4.523438 20.832031 4.578125 20.4375 C 4.597656 19.914062 4.632812 19.40625 4.6875 18.90625 C 4.914062 16.0625 5.15625 13.21875 5.40625 10.375 C 5.644531 7.675781 5.890625 4.976562 6.140625 2.28125 C 6.296875 0.488281 6.472656 -1.300781 6.671875 -3.09375 C 6.671875 -3.132812 6.671875 -3.171875 6.671875 -3.203125 C 6.691406 -3.316406 6.691406 -3.421875 6.671875 -3.515625 C 6.648438 -3.609375 6.585938 -3.703125 6.484375 -3.796875 C 6.296875 -3.796875 6.132812 -3.753906 6 -3.671875 C 5.863281 -3.597656 5.738281 -3.5 5.625 -3.375 C 5.519531 -3.28125 5.421875 -3.195312 5.328125 -3.125 C 4.398438 -2.445312 3.367188 -2.191406 2.234375 -2.359375 C 0.921875 -2.523438 0.128906 -3.242188 -0.140625 -4.515625 C -0.253906 -5.097656 -0.253906 -5.671875 -0.140625 -6.234375 C 0.222656 -7.890625 1.054688 -9.238281 2.359375 -10.28125 C 3.578125 -11.238281 4.914062 -11.484375 6.375 -11.015625 C 6.59375 -10.953125 6.796875 -10.882812 6.984375 -10.8125 C 7.492188 -10.59375 8.023438 -10.453125 8.578125 -10.390625 C 8.835938 -10.367188 9.03125 -10.265625 9.15625 -10.078125 C 9.28125 -9.890625 9.34375 -9.664062 9.34375 -9.40625 C 9.34375 -8.707031 9.320312 -8 9.28125 -7.28125 C 9.164062 -5.613281 9.015625 -3.519531 8.828125 -1 C 8.710938 0.789062 8.609375 2.289062 8.515625 3.5 C 8.796875 2.75 9.375 1.359375 10.25 -0.671875 C 11.132812 -2.710938 12.015625 -4.554688 12.890625 -6.203125 C 13.003906 -6.429688 13.117188 -6.65625 13.234375 -6.875 C 13.410156 -7.257812 13.578125 -7.554688 13.734375 -7.765625 C 13.890625 -7.984375 14.054688 -8.078125 14.234375 -8.046875 Z M 6.3125 -8.1875 C 6.445312 -8.5 6.46875 -8.765625 6.375 -8.984375 C 6.289062 -9.203125 6.085938 -9.429688 5.765625 -9.671875 C 5.296875 -10.035156 4.816406 -10.035156 4.328125 -9.671875 C 3.460938 -8.773438 2.878906 -7.8125 2.578125 -6.78125 C 2.273438 -5.757812 2.203125 -4.925781 2.359375 -4.28125 C 2.515625 -3.644531 2.832031 -3.484375 3.3125 -3.796875 C 3.570312 -3.984375 3.828125 -4.175781 4.078125 -4.375 C 4.617188 -4.914062 5.0625 -5.507812 5.40625 -6.15625 C 5.757812 -6.8125 6.0625 -7.488281 6.3125 -8.1875 Z M 6.3125 -8.1875 "/></g></g></g><g fill="#7dedff" fill-opacity="1"><g transform="translate(136.144704, 292.179854)"><g><path d="M 16.40625 -7.984375 C 16.644531 -7.960938 16.609375 -7.640625 16.296875 -7.015625 C 15.984375 -6.398438 15.46875 -5.691406 14.75 -4.890625 C 14.03125 -4.085938 13.226562 -3.394531 12.34375 -2.8125 C 11.46875 -2.226562 10.59375 -1.960938 9.71875 -2.015625 C 9.0625 -2.078125 8.578125 -2.269531 8.265625 -2.59375 C 7.953125 -2.925781 7.734375 -3.289062 7.609375 -3.6875 C 7.492188 -4.082031 7.421875 -4.429688 7.390625 -4.734375 C 7.367188 -4.941406 7.34375 -5.097656 7.3125 -5.203125 C 7.28125 -5.304688 7.21875 -5.3125 7.125 -5.21875 C 6.445312 -3.664062 5.273438 -2.890625 3.609375 -2.890625 C 2.671875 -2.890625 1.910156 -3.300781 1.328125 -4.125 C 0.742188 -4.945312 0.375 -5.976562 0.21875 -7.21875 C 0.0703125 -8.46875 0.195312 -9.734375 0.59375 -11.015625 C 0.6875 -11.429688 0.941406 -11.722656 1.359375 -11.890625 C 1.660156 -12.003906 1.96875 -11.988281 2.28125 -11.84375 C 2.601562 -11.707031 2.773438 -11.503906 2.796875 -11.234375 C 2.796875 -10.953125 2.773438 -10.671875 2.734375 -10.390625 C 2.679688 -10.179688 2.644531 -9.984375 2.625 -9.796875 C 2.582031 -9.035156 2.59375 -8.195312 2.65625 -7.28125 C 2.726562 -6.375 2.96875 -5.597656 3.375 -4.953125 C 3.78125 -4.429688 4.222656 -4.363281 4.703125 -4.75 C 5.191406 -5.132812 5.625 -5.734375 6 -6.546875 C 6.28125 -7.191406 6.503906 -7.832031 6.671875 -8.46875 C 6.835938 -9.113281 6.941406 -9.613281 6.984375 -9.96875 C 7.023438 -10.113281 7.046875 -10.207031 7.046875 -10.25 C 7.117188 -10.53125 7.191406 -10.800781 7.265625 -11.0625 C 7.378906 -11.445312 7.5 -11.828125 7.625 -12.203125 C 7.820312 -12.921875 8.328125 -13.222656 9.140625 -13.109375 C 9.640625 -13.066406 9.910156 -12.820312 9.953125 -12.375 C 9.992188 -11.769531 10.003906 -11.164062 9.984375 -10.5625 C 9.960938 -9.925781 9.929688 -9.3125 9.890625 -8.71875 C 9.835938 -7.832031 9.800781 -6.957031 9.78125 -6.09375 C 9.757812 -4.832031 10.007812 -4.097656 10.53125 -3.890625 C 11.050781 -3.691406 11.6875 -3.828125 12.4375 -4.296875 C 13.195312 -4.773438 13.925781 -5.421875 14.625 -6.234375 C 14.695312 -6.304688 14.78125 -6.398438 14.875 -6.515625 C 15.007812 -6.703125 15.175781 -6.90625 15.375 -7.125 C 15.570312 -7.34375 15.765625 -7.535156 15.953125 -7.703125 C 16.140625 -7.867188 16.289062 -7.960938 16.40625 -7.984375 Z M 16.40625 -7.984375 "/></g></g></g><g fill="#7dedff" fill-opacity="1"><g transform="translate(152.005242, 292.179854)"><g><path d="M 15.296875 -7.671875 C 15.523438 -7.804688 15.75 -7.910156 15.96875 -7.984375 C 16.195312 -8.054688 16.34375 -8.050781 16.40625 -7.96875 C 16.476562 -7.882812 16.390625 -7.691406 16.140625 -7.390625 C 15.347656 -6.484375 14.394531 -5.648438 13.28125 -4.890625 C 12.175781 -4.140625 11.046875 -3.503906 9.890625 -2.984375 C 8.972656 -2.566406 8.007812 -2.238281 7 -2 C 5.988281 -1.757812 4.988281 -1.707031 4 -1.84375 C 3.007812 -1.976562 2.109375 -2.414062 1.296875 -3.15625 C 0.0546875 -4.300781 -0.453125 -5.695312 -0.234375 -7.34375 C -0.0546875 -8.65625 0.453125 -9.769531 1.296875 -10.6875 C 2.140625 -11.601562 3.195312 -12.222656 4.46875 -12.546875 C 5.539062 -12.785156 6.613281 -12.8125 7.6875 -12.625 C 8.164062 -12.550781 8.609375 -12.390625 9.015625 -12.140625 C 9.378906 -11.859375 9.582031 -11.523438 9.625 -11.140625 C 9.664062 -10.753906 9.519531 -10.390625 9.1875 -10.046875 C 8.507812 -9.441406 7.726562 -9.082031 6.84375 -8.96875 C 5.84375 -8.800781 4.84375 -8.695312 3.84375 -8.65625 C 3.351562 -8.65625 3.007812 -8.550781 2.8125 -8.34375 C 2.613281 -8.144531 2.5 -7.800781 2.46875 -7.3125 C 2.3125 -5.988281 2.738281 -4.910156 3.75 -4.078125 C 4.375 -3.578125 5.128906 -3.363281 6.015625 -3.4375 C 6.910156 -3.519531 7.859375 -3.765625 8.859375 -4.171875 C 9.867188 -4.578125 10.851562 -5.050781 11.8125 -5.59375 C 12.78125 -6.132812 13.648438 -6.648438 14.421875 -7.140625 C 14.753906 -7.347656 15.046875 -7.523438 15.296875 -7.671875 Z M 4.265625 -10.484375 C 4.265625 -10.460938 4.25 -10.453125 4.21875 -10.453125 C 4.175781 -10.410156 4.117188 -10.359375 4.046875 -10.296875 C 3.984375 -10.242188 3.921875 -10.1875 3.859375 -10.125 C 3.804688 -10.070312 3.78125 -10.035156 3.78125 -10.015625 C 3.800781 -9.941406 3.988281 -9.921875 4.34375 -9.953125 C 4.707031 -9.992188 5.101562 -10.054688 5.53125 -10.140625 C 5.96875 -10.234375 6.332031 -10.359375 6.625 -10.515625 C 6.914062 -10.671875 7.003906 -10.851562 6.890625 -11.0625 C 6.835938 -11.125 6.769531 -11.175781 6.6875 -11.21875 C 6.601562 -11.269531 6.515625 -11.304688 6.421875 -11.328125 C 6.003906 -11.328125 5.617188 -11.242188 5.265625 -11.078125 C 4.921875 -10.921875 4.585938 -10.722656 4.265625 -10.484375 Z M 4.265625 -10.484375 "/></g></g></g><g fill="#747b43" fill-opacity="1"><g transform="translate(167.745284, 292.179854)"><g/></g></g><g fill="#004aad" fill-opacity="1"><g transform="translate(176.194506, 292.179854)"><g><path d="M 53.03125 -8.359375 C 53.269531 -8.242188 53.351562 -8.054688 53.28125 -7.796875 C 53.207031 -7.546875 53.078125 -7.28125 52.890625 -7 C 52.703125 -6.71875 52.53125 -6.484375 52.375 -6.296875 C 52.289062 -6.210938 52.238281 -6.144531 52.21875 -6.09375 C 50.84375 -4.1875 49.648438 -2.1875 48.640625 -0.09375 C 47.628906 2 46.679688 4.128906 45.796875 6.296875 C 45.429688 7.128906 45.070312 7.96875 44.71875 8.8125 C 43.90625 10.644531 43.117188 12.492188 42.359375 14.359375 C 41.046875 17.546875 39.660156 20.707031 38.203125 23.84375 C 37.679688 24.945312 37.097656 26.023438 36.453125 27.078125 C 35.929688 27.929688 35.140625 28.347656 34.078125 28.328125 C 33.191406 28.347656 32.65625 27.941406 32.46875 27.109375 C 32.28125 26.390625 32.175781 25.65625 32.15625 24.90625 C 32.03125 22.0625 32.097656 19.234375 32.359375 16.421875 C 32.523438 14.460938 32.675781 12.515625 32.8125 10.578125 C 32.957031 8.484375 33.125 6.390625 33.3125 4.296875 C 33.71875 -0.472656 34.171875 -5.242188 34.671875 -10.015625 C 35.253906 -15.484375 35.859375 -20.9375 36.484375 -26.375 C 37.578125 -35.601562 38.546875 -44.851562 39.390625 -54.125 C 39.429688 -54.707031 39.441406 -55.1875 39.421875 -55.5625 C 39.398438 -55.9375 39.316406 -56.078125 39.171875 -55.984375 C 39.023438 -55.890625 38.804688 -55.445312 38.515625 -54.65625 C 35.765625 -46.738281 33.222656 -38.765625 30.890625 -30.734375 C 30.796875 -30.441406 30.71875 -30.148438 30.65625 -29.859375 C 29.257812 -25.085938 27.847656 -20.332031 26.421875 -15.59375 C 25.890625 -13.757812 25.273438 -11.894531 24.578125 -10 C 23.878906 -8.113281 23.078125 -6.335938 22.171875 -4.671875 C 21.890625 -4.179688 21.523438 -3.847656 21.078125 -3.671875 C 20.640625 -3.492188 20.140625 -3.4375 19.578125 -3.5 C 18.992188 -3.5625 18.566406 -3.84375 18.296875 -4.34375 C 18.066406 -4.832031 17.925781 -5.359375 17.875 -5.921875 C 17.8125 -6.578125 17.738281 -7.242188 17.65625 -7.921875 C 17.476562 -9.398438 17.332031 -10.875 17.21875 -12.34375 C 16.882812 -16.457031 16.453125 -20.585938 15.921875 -24.734375 C 15.390625 -28.878906 14.703125 -32.972656 13.859375 -37.015625 C 13.617188 -38.046875 13.273438 -38.019531 12.828125 -36.9375 C 12.378906 -35.863281 11.867188 -34.054688 11.296875 -31.515625 C 10.722656 -28.972656 10.113281 -26.050781 9.46875 -22.75 C 8.832031 -19.445312 8.21875 -16.082031 7.625 -12.65625 C 7.039062 -9.226562 6.5 -6.097656 6 -3.265625 C 5.257812 1.128906 4.757812 3.929688 4.5 5.140625 C 4.289062 6.003906 4.003906 6.832031 3.640625 7.625 C 3.460938 7.96875 3.222656 8.195312 2.921875 8.3125 C 2.617188 8.425781 2.285156 8.460938 1.921875 8.421875 C 1.179688 8.328125 0.726562 7.898438 0.5625 7.140625 C 0.488281 6.734375 0.453125 6.328125 0.453125 5.921875 C 0.421875 5.585938 0.40625 5.257812 0.40625 4.9375 C 0.34375 3.65625 0.300781 2.363281 0.28125 1.0625 C 0.09375 -8.925781 0.148438 -18.921875 0.453125 -28.921875 C 0.660156 -35.253906 0.847656 -41.597656 1.015625 -47.953125 C 1.015625 -48.628906 1.015625 -49.316406 1.015625 -50.015625 C 0.992188 -50.660156 0.992188 -51.320312 1.015625 -52 C 1.035156 -52.519531 1.222656 -52.878906 1.578125 -53.078125 C 1.941406 -53.273438 2.367188 -53.265625 2.859375 -53.046875 C 3.046875 -52.984375 3.171875 -52.878906 3.234375 -52.734375 C 3.304688 -52.597656 3.351562 -52.4375 3.375 -52.25 C 3.59375 -50.507812 3.671875 -48.765625 3.609375 -47.015625 C 3.578125 -45.972656 3.535156 -44.925781 3.484375 -43.875 C 3.410156 -41.007812 3.316406 -38.144531 3.203125 -35.28125 C 3.066406 -31.582031 2.976562 -27.894531 2.9375 -24.21875 C 2.882812 -21.5 2.828125 -18.773438 2.765625 -16.046875 C 2.691406 -13.160156 2.664062 -10.273438 2.6875 -7.390625 C 2.6875 -5.410156 2.675781 -3.40625 2.65625 -1.375 C 2.65625 -1.257812 2.664062 -1.078125 2.6875 -0.828125 C 2.71875 -0.585938 2.757812 -0.332031 2.8125 -0.0625 C 2.875 0.195312 2.929688 0.40625 2.984375 0.5625 C 3.046875 0.726562 3.113281 0.769531 3.1875 0.6875 C 3.269531 0.613281 3.347656 0.351562 3.421875 -0.09375 C 3.628906 -1.375 3.863281 -2.816406 4.125 -4.421875 C 4.707031 -8.210938 5.394531 -12.390625 6.1875 -16.953125 C 6.988281 -21.515625 7.890625 -25.820312 8.890625 -29.875 C 9.898438 -33.9375 10.988281 -37.09375 12.15625 -39.34375 C 12.644531 -40.15625 13.25 -40.546875 13.96875 -40.515625 C 14.6875 -40.492188 15.265625 -40.054688 15.703125 -39.203125 C 16.285156 -37.828125 16.773438 -36.144531 17.171875 -34.15625 C 17.578125 -32.164062 17.910156 -30.09375 18.171875 -27.9375 C 18.429688 -25.78125 18.660156 -23.765625 18.859375 -21.890625 C 18.953125 -20.859375 19.046875 -19.925781 19.140625 -19.09375 C 19.273438 -17.757812 19.398438 -16.535156 19.515625 -15.421875 C 19.796875 -12.785156 20.050781 -10.734375 20.28125 -9.265625 C 20.507812 -7.804688 20.820312 -7.078125 21.21875 -7.078125 C 21.613281 -7.078125 22.15625 -7.988281 22.84375 -9.8125 C 23.539062 -11.632812 24.476562 -14.535156 25.65625 -18.515625 C 26.726562 -22.203125 27.738281 -25.753906 28.6875 -29.171875 C 29.945312 -33.679688 31.25 -38.164062 32.59375 -42.625 C 33.945312 -47.09375 35.535156 -51.742188 37.359375 -56.578125 C 37.898438 -57.972656 38.457031 -59.125 39.03125 -60.03125 C 39.613281 -60.9375 40.179688 -61.414062 40.734375 -61.46875 C 40.941406 -61.5 41.148438 -61.46875 41.359375 -61.375 C 41.578125 -61.289062 41.769531 -61.050781 41.9375 -60.65625 C 42.101562 -60.257812 42.195312 -59.597656 42.21875 -58.671875 C 42.257812 -57.109375 42.222656 -55.546875 42.109375 -53.984375 C 42.003906 -52.429688 41.882812 -50.878906 41.75 -49.328125 C 41.726562 -49.128906 41.71875 -48.953125 41.71875 -48.796875 C 40.945312 -40.804688 40.085938 -32.835938 39.140625 -24.890625 C 38.535156 -19.691406 37.953125 -14.5 37.390625 -9.3125 C 37.390625 -9.195312 37.378906 -9.066406 37.359375 -8.921875 C 36.847656 -4.085938 36.367188 0.753906 35.921875 5.609375 C 35.554688 9.859375 35.21875 14.113281 34.90625 18.375 C 34.882812 18.75 34.863281 19.132812 34.84375 19.53125 C 34.769531 20.625 34.722656 21.710938 34.703125 22.796875 C 34.703125 23.203125 34.703125 23.59375 34.703125 23.96875 C 34.679688 24.082031 34.691406 24.175781 34.734375 24.25 C 34.773438 24.332031 34.867188 24.375 35.015625 24.375 C 35.066406 24.375 35.117188 24.359375 35.171875 24.328125 C 35.234375 24.296875 35.273438 24.242188 35.296875 24.171875 C 36.691406 21.285156 38.054688 18.398438 39.390625 15.515625 C 40.640625 12.742188 41.921875 9.976562 43.234375 7.21875 C 44.554688 4.457031 45.953125 1.71875 47.421875 -1 C 48.617188 -3.28125 49.734375 -5.101562 50.765625 -6.46875 C 51.796875 -7.84375 52.550781 -8.472656 53.03125 -8.359375 Z M 53.03125 -8.359375 "/></g></g></g><g fill="#004aad" fill-opacity="1"><g transform="translate(228.359276, 292.179854)"><g><path d="M 15.296875 -7.671875 C 15.523438 -7.804688 15.75 -7.910156 15.96875 -7.984375 C 16.195312 -8.054688 16.34375 -8.050781 16.40625 -7.96875 C 16.476562 -7.882812 16.390625 -7.691406 16.140625 -7.390625 C 15.347656 -6.484375 14.394531 -5.648438 13.28125 -4.890625 C 12.175781 -4.140625 11.046875 -3.503906 9.890625 -2.984375 C 8.972656 -2.566406 8.007812 -2.238281 7 -2 C 5.988281 -1.757812 4.988281 -1.707031 4 -1.84375 C 3.007812 -1.976562 2.109375 -2.414062 1.296875 -3.15625 C 0.0546875 -4.300781 -0.453125 -5.695312 -0.234375 -7.34375 C -0.0546875 -8.65625 0.453125 -9.769531 1.296875 -10.6875 C 2.140625 -11.601562 3.195312 -12.222656 4.46875 -12.546875 C 5.539062 -12.785156 6.613281 -12.8125 7.6875 -12.625 C 8.164062 -12.550781 8.609375 -12.390625 9.015625 -12.140625 C 9.378906 -11.859375 9.582031 -11.523438 9.625 -11.140625 C 9.664062 -10.753906 9.519531 -10.390625 9.1875 -10.046875 C 8.507812 -9.441406 7.726562 -9.082031 6.84375 -8.96875 C 5.84375 -8.800781 4.84375 -8.695312 3.84375 -8.65625 C 3.351562 -8.65625 3.007812 -8.550781 2.8125 -8.34375 C 2.613281 -8.144531 2.5 -7.800781 2.46875 -7.3125 C 2.3125 -5.988281 2.738281 -4.910156 3.75 -4.078125 C 4.375 -3.578125 5.128906 -3.363281 6.015625 -3.4375 C 6.910156 -3.519531 7.859375 -3.765625 8.859375 -4.171875 C 9.867188 -4.578125 10.851562 -5.050781 11.8125 -5.59375 C 12.78125 -6.132812 13.648438 -6.648438 14.421875 -7.140625 C 14.753906 -7.347656 15.046875 -7.523438 15.296875 -7.671875 Z M 4.265625 -10.484375 C 4.265625 -10.460938 4.25 -10.453125 4.21875 -10.453125 C 4.175781 -10.410156 4.117188 -10.359375 4.046875 -10.296875 C 3.984375 -10.242188 3.921875 -10.1875 3.859375 -10.125 C 3.804688 -10.070312 3.78125 -10.035156 3.78125 -10.015625 C 3.800781 -9.941406 3.988281 -9.921875 4.34375 -9.953125 C 4.707031 -9.992188 5.101562 -10.054688 5.53125 -10.140625 C 5.96875 -10.234375 6.332031 -10.359375 6.625 -10.515625 C 6.914062 -10.671875 7.003906 -10.851562 6.890625 -11.0625 C 6.835938 -11.125 6.769531 -11.175781 6.6875 -11.21875 C 6.601562 -11.269531 6.515625 -11.304688 6.421875 -11.328125 C 6.003906 -11.328125 5.617188 -11.242188 5.265625 -11.078125 C 4.921875 -10.921875 4.585938 -10.722656 4.265625 -10.484375 Z M 4.265625 -10.484375 "/></g></g></g><g fill="#004aad" fill-opacity="1"><g transform="translate(244.108743, 292.179854)"><g><path d="M 24.90625 -7.75 C 25 -7.925781 25.140625 -8.019531 25.328125 -8.03125 C 25.523438 -8.039062 25.691406 -7.921875 25.828125 -7.671875 C 25.890625 -7.597656 25.84375 -7.414062 25.6875 -7.125 C 25.53125 -6.84375 25.320312 -6.519531 25.0625 -6.15625 C 24.8125 -5.789062 24.570312 -5.457031 24.34375 -5.15625 C 24.113281 -4.851562 23.945312 -4.648438 23.84375 -4.546875 C 22.800781 -3.390625 21.75 -2.535156 20.6875 -1.984375 C 19.632812 -1.441406 18.488281 -1.328125 17.25 -1.640625 C 16.007812 -1.953125 14.625 -2.832031 13.09375 -4.28125 C 12.863281 -4.539062 12.628906 -4.796875 12.390625 -5.046875 C 12.328125 -5.117188 12.269531 -5.1875 12.21875 -5.25 C 11.96875 -5.539062 11.6875 -5.578125 11.375 -5.359375 C 11.0625 -5.128906 10.738281 -4.898438 10.40625 -4.671875 C 10.125 -4.453125 9.832031 -4.253906 9.53125 -4.078125 C 8.550781 -3.398438 7.515625 -2.828125 6.421875 -2.359375 C 5.265625 -1.847656 4.046875 -1.648438 2.765625 -1.765625 C 0.765625 -1.992188 -0.269531 -3.097656 -0.34375 -5.078125 C -0.363281 -6.472656 -0.0664062 -7.722656 0.546875 -8.828125 C 1.160156 -9.929688 2.019531 -10.742188 3.125 -11.265625 C 4.238281 -11.796875 5.515625 -11.898438 6.953125 -11.578125 C 7.109375 -11.546875 7.316406 -11.5 7.578125 -11.4375 C 7.742188 -11.382812 7.941406 -11.335938 8.171875 -11.296875 C 8.035156 -11.628906 7.910156 -11.921875 7.796875 -12.171875 C 7.578125 -12.597656 7.390625 -12.984375 7.234375 -13.328125 C 6.273438 -15.304688 5.492188 -17.566406 4.890625 -20.109375 C 4.285156 -22.660156 3.988281 -25.269531 4 -27.9375 C 4.007812 -30.613281 4.457031 -33.101562 5.34375 -35.40625 C 6.226562 -37.71875 7.695312 -39.617188 9.75 -41.109375 C 11.050781 -41.992188 12.394531 -42.472656 13.78125 -42.546875 C 15.164062 -42.617188 16.472656 -42.316406 17.703125 -41.640625 C 18.929688 -40.960938 19.929688 -39.945312 20.703125 -38.59375 C 21.703125 -36.726562 22.316406 -34.765625 22.546875 -32.703125 C 22.972656 -29.367188 22.90625 -26.257812 22.34375 -23.375 C 21.78125 -20.488281 20.789062 -17.757812 19.375 -15.1875 C 17.957031 -12.613281 16.15625 -10.117188 13.96875 -7.703125 C 13.75 -7.460938 13.632812 -7.273438 13.625 -7.140625 C 13.613281 -7.003906 13.71875 -6.804688 13.9375 -6.546875 C 14.375 -5.972656 14.851562 -5.410156 15.375 -4.859375 C 15.90625 -4.304688 16.492188 -3.84375 17.140625 -3.46875 C 18.046875 -3.082031 19.015625 -3.078125 20.046875 -3.453125 C 21.085938 -3.835938 22.050781 -4.429688 22.9375 -5.234375 C 23.820312 -6.035156 24.476562 -6.875 24.90625 -7.75 Z M 9.328125 -6.34375 C 9.609375 -6.582031 9.628906 -6.847656 9.390625 -7.140625 C 9.253906 -7.304688 9.117188 -7.484375 8.984375 -7.671875 C 8.597656 -8.128906 8.160156 -8.601562 7.671875 -9.09375 C 7.191406 -9.59375 6.6875 -9.96875 6.15625 -10.21875 C 5.632812 -10.46875 5.109375 -10.488281 4.578125 -10.28125 C 3.828125 -9.9375 3.210938 -9.320312 2.734375 -8.4375 C 2.265625 -7.550781 1.988281 -6.640625 1.90625 -5.703125 C 1.820312 -4.773438 2 -4.066406 2.4375 -3.578125 C 2.882812 -3.097656 3.644531 -3.050781 4.71875 -3.4375 C 6.394531 -4.175781 7.929688 -5.144531 9.328125 -6.34375 Z M 12.859375 -9.796875 C 15.085938 -12.429688 16.753906 -15.019531 17.859375 -17.5625 C 18.960938 -20.113281 19.710938 -23.097656 20.109375 -26.515625 C 20.222656 -27.347656 20.273438 -28.441406 20.265625 -29.796875 C 20.253906 -31.148438 20.128906 -32.566406 19.890625 -34.046875 C 19.660156 -35.523438 19.242188 -36.867188 18.640625 -38.078125 C 18.035156 -39.285156 17.191406 -40.15625 16.109375 -40.6875 C 15.023438 -41.226562 13.640625 -41.226562 11.953125 -40.6875 C 10.085938 -39.59375 8.703125 -38.144531 7.796875 -36.34375 C 6.898438 -34.539062 6.390625 -32.535156 6.265625 -30.328125 C 6.140625 -28.117188 6.285156 -25.859375 6.703125 -23.546875 C 7.117188 -21.242188 7.695312 -19.054688 8.4375 -16.984375 C 9.1875 -14.921875 9.992188 -13.117188 10.859375 -11.578125 C 10.953125 -11.390625 11.046875 -11.203125 11.140625 -11.015625 C 11.390625 -10.390625 11.757812 -9.820312 12.25 -9.3125 C 12.320312 -9.375 12.394531 -9.429688 12.46875 -9.484375 C 12.601562 -9.566406 12.734375 -9.671875 12.859375 -9.796875 Z M 12.859375 -9.796875 "/></g></g></g><g fill="#004aad" fill-opacity="1"><g transform="translate(269.251611, 292.179854)"><g><path d="M 8.234375 -6.4375 C 7.910156 -5.757812 7.351562 -5.007812 6.5625 -4.1875 C 5.769531 -3.363281 4.875 -2.835938 3.875 -2.609375 C 2.875 -2.390625 1.921875 -2.738281 1.015625 -3.65625 C 0.660156 -4.050781 0.398438 -4.507812 0.234375 -5.03125 C 0.078125 -5.5625 0.0195312 -6.078125 0.0625 -6.578125 C 0.0625 -6.722656 0.0625 -6.898438 0.0625 -7.109375 C 0.0625 -7.648438 0.0820312 -8.273438 0.125 -8.984375 C 0.175781 -9.691406 0.285156 -10.332031 0.453125 -10.90625 C 0.617188 -11.476562 0.875 -11.820312 1.21875 -11.9375 C 2.226562 -12.1875 2.773438 -11.835938 2.859375 -10.890625 C 2.859375 -10.578125 2.847656 -10.269531 2.828125 -9.96875 C 2.804688 -9.8125 2.796875 -9.660156 2.796875 -9.515625 C 2.773438 -9.078125 2.753906 -8.632812 2.734375 -8.1875 C 2.734375 -7.84375 2.71875 -7.492188 2.6875 -7.140625 C 2.664062 -5.609375 3.007812 -4.695312 3.71875 -4.40625 C 4.425781 -4.113281 5.234375 -4.421875 6.140625 -5.328125 C 7.046875 -6.242188 7.640625 -7 7.921875 -7.59375 C 8.203125 -8.195312 8.40625 -8.320312 8.53125 -7.96875 C 8.664062 -7.625 8.566406 -7.113281 8.234375 -6.4375 Z M 2.65625 -15.203125 C 2.507812 -15.085938 2.335938 -15.015625 2.140625 -14.984375 C 1.953125 -14.953125 1.785156 -14.96875 1.640625 -15.03125 C 1.515625 -15.125 1.4375 -15.242188 1.40625 -15.390625 C 1.375 -15.546875 1.359375 -15.734375 1.359375 -15.953125 C 1.359375 -15.992188 1.367188 -16.035156 1.390625 -16.078125 C 1.410156 -16.265625 1.460938 -16.453125 1.546875 -16.640625 C 1.753906 -17.148438 2.191406 -17.382812 2.859375 -17.34375 C 3.085938 -17.3125 3.269531 -17.21875 3.40625 -17.0625 C 3.539062 -16.90625 3.566406 -16.71875 3.484375 -16.5 C 3.328125 -15.976562 3.050781 -15.546875 2.65625 -15.203125 Z M 2.65625 -15.203125 "/></g></g></g><g fill="#004aad" fill-opacity="1"><g transform="translate(277.432414, 292.179854)"><g><path d="M 14.734375 -7.75 C 15.171875 -8.019531 15.460938 -8.097656 15.609375 -7.984375 C 15.753906 -7.867188 15.660156 -7.585938 15.328125 -7.140625 C 14.378906 -5.992188 13.195312 -4.925781 11.78125 -3.9375 C 10.375 -2.945312 8.96875 -2.238281 7.5625 -1.8125 C 6.664062 -1.476562 5.707031 -1.3125 4.6875 -1.3125 C 3.96875 -1.289062 3.238281 -1.398438 2.5 -1.640625 C 0.925781 -2.140625 0.0351562 -3.21875 -0.171875 -4.875 C -0.285156 -5.78125 -0.226562 -6.6875 0 -7.59375 C 0.269531 -8.53125 0.710938 -9.347656 1.328125 -10.046875 C 1.953125 -10.742188 2.722656 -11.273438 3.640625 -11.640625 C 4.492188 -11.972656 5.378906 -12.101562 6.296875 -12.03125 C 7.222656 -11.96875 7.972656 -11.675781 8.546875 -11.15625 C 8.648438 -11.0625 8.703125 -10.941406 8.703125 -10.796875 C 8.703125 -10.660156 8.671875 -10.523438 8.609375 -10.390625 C 8.472656 -9.972656 8.28125 -9.773438 8.03125 -9.796875 C 7.78125 -9.828125 7.476562 -9.929688 7.125 -10.109375 C 6.875 -10.242188 6.59375 -10.367188 6.28125 -10.484375 C 5.976562 -10.609375 5.664062 -10.632812 5.34375 -10.5625 C 4.4375 -10.425781 3.679688 -9.9375 3.078125 -9.09375 C 2.578125 -8.394531 2.238281 -7.613281 2.0625 -6.75 C 1.894531 -5.894531 1.960938 -5.128906 2.265625 -4.453125 C 2.640625 -3.753906 3.242188 -3.359375 4.078125 -3.265625 C 4.921875 -3.171875 5.875 -3.269531 6.9375 -3.5625 C 8.007812 -3.851562 9.082031 -4.253906 10.15625 -4.765625 C 11.226562 -5.273438 12.175781 -5.796875 13 -6.328125 C 13.832031 -6.867188 14.410156 -7.34375 14.734375 -7.75 Z M 14.734375 -7.75 "/></g></g></g><g fill="#004aad" fill-opacity="1"><g transform="translate(292.420259, 292.179854)"><g><path d="M 8.234375 -6.4375 C 7.910156 -5.757812 7.351562 -5.007812 6.5625 -4.1875 C 5.769531 -3.363281 4.875 -2.835938 3.875 -2.609375 C 2.875 -2.390625 1.921875 -2.738281 1.015625 -3.65625 C 0.660156 -4.050781 0.398438 -4.507812 0.234375 -5.03125 C 0.078125 -5.5625 0.0195312 -6.078125 0.0625 -6.578125 C 0.0625 -6.722656 0.0625 -6.898438 0.0625 -7.109375 C 0.0625 -7.648438 0.0820312 -8.273438 0.125 -8.984375 C 0.175781 -9.691406 0.285156 -10.332031 0.453125 -10.90625 C 0.617188 -11.476562 0.875 -11.820312 1.21875 -11.9375 C 2.226562 -12.1875 2.773438 -11.835938 2.859375 -10.890625 C 2.859375 -10.578125 2.847656 -10.269531 2.828125 -9.96875 C 2.804688 -9.8125 2.796875 -9.660156 2.796875 -9.515625 C 2.773438 -9.078125 2.753906 -8.632812 2.734375 -8.1875 C 2.734375 -7.84375 2.71875 -7.492188 2.6875 -7.140625 C 2.664062 -5.609375 3.007812 -4.695312 3.71875 -4.40625 C 4.425781 -4.113281 5.234375 -4.421875 6.140625 -5.328125 C 7.046875 -6.242188 7.640625 -7 7.921875 -7.59375 C 8.203125 -8.195312 8.40625 -8.320312 8.53125 -7.96875 C 8.664062 -7.625 8.566406 -7.113281 8.234375 -6.4375 Z M 2.65625 -15.203125 C 2.507812 -15.085938 2.335938 -15.015625 2.140625 -14.984375 C 1.953125 -14.953125 1.785156 -14.96875 1.640625 -15.03125 C 1.515625 -15.125 1.4375 -15.242188 1.40625 -15.390625 C 1.375 -15.546875 1.359375 -15.734375 1.359375 -15.953125 C 1.359375 -15.992188 1.367188 -16.035156 1.390625 -16.078125 C 1.410156 -16.265625 1.460938 -16.453125 1.546875 -16.640625 C 1.753906 -17.148438 2.191406 -17.382812 2.859375 -17.34375 C 3.085938 -17.3125 3.269531 -17.21875 3.40625 -17.0625 C 3.539062 -16.90625 3.566406 -16.71875 3.484375 -16.5 C 3.328125 -15.976562 3.050781 -15.546875 2.65625 -15.203125 Z M 2.65625 -15.203125 "/></g></g></g><g fill="#004aad" fill-opacity="1"><g transform="translate(300.601068, 292.179854)"><g><path d="M 13.125 -6.109375 C 13.9375 -7.398438 14.421875 -8.21875 14.578125 -8.5625 C 14.734375 -8.914062 14.851562 -8.898438 14.9375 -8.515625 C 15.03125 -8.140625 14.769531 -7.28125 14.15625 -5.9375 C 13.539062 -4.601562 12.773438 -3.570312 11.859375 -2.84375 C 10.953125 -2.125 10.101562 -1.859375 9.3125 -2.046875 C 8.53125 -2.234375 7.96875 -2.78125 7.625 -3.6875 C 7.289062 -4.59375 7.191406 -5.734375 7.328125 -7.109375 C 7.328125 -7.128906 7.335938 -7.1875 7.359375 -7.28125 C 7.378906 -7.519531 7.414062 -7.863281 7.46875 -8.3125 C 7.53125 -8.769531 7.578125 -9.238281 7.609375 -9.71875 C 7.640625 -10.207031 7.625 -10.609375 7.5625 -10.921875 C 7.5 -11.242188 7.351562 -11.359375 7.125 -11.265625 C 6.5625 -10.960938 6.015625 -10.363281 5.484375 -9.46875 C 4.953125 -8.570312 4.46875 -7.632812 4.03125 -6.65625 C 3.59375 -5.675781 3.285156 -4.882812 3.109375 -4.28125 C 3.035156 -4.09375 2.96875 -3.894531 2.90625 -3.6875 C 2.8125 -3.40625 2.707031 -3.128906 2.59375 -2.859375 C 2.28125 -2.066406 1.742188 -1.757812 0.984375 -1.9375 C 0.554688 -2.03125 0.304688 -2.289062 0.234375 -2.71875 C 0.210938 -3.039062 0.203125 -3.351562 0.203125 -3.65625 C 0.203125 -3.84375 0.191406 -4.015625 0.171875 -4.171875 C 0.128906 -6.523438 0.0703125 -8.890625 0 -11.265625 C 0.0195312 -11.546875 0.140625 -11.738281 0.359375 -11.84375 C 0.585938 -11.945312 0.851562 -12 1.15625 -12 C 1.382812 -12 1.601562 -11.929688 1.8125 -11.796875 C 2.019531 -11.671875 2.148438 -11.410156 2.203125 -11.015625 C 2.222656 -10.878906 2.234375 -10.738281 2.234375 -10.59375 C 2.253906 -10.519531 2.265625 -10.453125 2.265625 -10.390625 C 2.304688 -10.066406 2.328125 -9.785156 2.328125 -9.546875 C 2.328125 -9.203125 2.347656 -8.96875 2.390625 -8.84375 C 2.441406 -8.71875 2.546875 -8.722656 2.703125 -8.859375 C 2.859375 -8.992188 3.109375 -9.320312 3.453125 -9.84375 C 4.054688 -10.769531 4.804688 -11.554688 5.703125 -12.203125 C 6.515625 -12.785156 7.40625 -13.03125 8.375 -12.9375 C 9.207031 -12.851562 9.769531 -12.410156 10.0625 -11.609375 C 10.175781 -11.210938 10.234375 -10.8125 10.234375 -10.40625 C 10.234375 -10 10.207031 -9.585938 10.15625 -9.171875 C 10.132812 -8.742188 10.101562 -8.3125 10.0625 -7.875 C 10.03125 -7.738281 10.003906 -7.597656 9.984375 -7.453125 C 9.847656 -5.941406 9.894531 -4.929688 10.125 -4.421875 C 10.351562 -3.910156 10.707031 -3.738281 11.1875 -3.90625 C 11.664062 -4.082031 12.3125 -4.816406 13.125 -6.109375 Z M 13.125 -6.109375 "/></g></g></g><g fill="#004aad" fill-opacity="1"><g transform="translate(314.954224, 292.179854)"><g><path d="M 15.296875 -7.671875 C 15.523438 -7.804688 15.75 -7.910156 15.96875 -7.984375 C 16.195312 -8.054688 16.34375 -8.050781 16.40625 -7.96875 C 16.476562 -7.882812 16.390625 -7.691406 16.140625 -7.390625 C 15.347656 -6.484375 14.394531 -5.648438 13.28125 -4.890625 C 12.175781 -4.140625 11.046875 -3.503906 9.890625 -2.984375 C 8.972656 -2.566406 8.007812 -2.238281 7 -2 C 5.988281 -1.757812 4.988281 -1.707031 4 -1.84375 C 3.007812 -1.976562 2.109375 -2.414062 1.296875 -3.15625 C 0.0546875 -4.300781 -0.453125 -5.695312 -0.234375 -7.34375 C -0.0546875 -8.65625 0.453125 -9.769531 1.296875 -10.6875 C 2.140625 -11.601562 3.195312 -12.222656 4.46875 -12.546875 C 5.539062 -12.785156 6.613281 -12.8125 7.6875 -12.625 C 8.164062 -12.550781 8.609375 -12.390625 9.015625 -12.140625 C 9.378906 -11.859375 9.582031 -11.523438 9.625 -11.140625 C 9.664062 -10.753906 9.519531 -10.390625 9.1875 -10.046875 C 8.507812 -9.441406 7.726562 -9.082031 6.84375 -8.96875 C 5.84375 -8.800781 4.84375 -8.695312 3.84375 -8.65625 C 3.351562 -8.65625 3.007812 -8.550781 2.8125 -8.34375 C 2.613281 -8.144531 2.5 -7.800781 2.46875 -7.3125 C 2.3125 -5.988281 2.738281 -4.910156 3.75 -4.078125 C 4.375 -3.578125 5.128906 -3.363281 6.015625 -3.4375 C 6.910156 -3.519531 7.859375 -3.765625 8.859375 -4.171875 C 9.867188 -4.578125 10.851562 -5.050781 11.8125 -5.59375 C 12.78125 -6.132812 13.648438 -6.648438 14.421875 -7.140625 C 14.753906 -7.347656 15.046875 -7.523438 15.296875 -7.671875 Z M 4.265625 -10.484375 C 4.265625 -10.460938 4.25 -10.453125 4.21875 -10.453125 C 4.175781 -10.410156 4.117188 -10.359375 4.046875 -10.296875 C 3.984375 -10.242188 3.921875 -10.1875 3.859375 -10.125 C 3.804688 -10.070312 3.78125 -10.035156 3.78125 -10.015625 C 3.800781 -9.941406 3.988281 -9.921875 4.34375 -9.953125 C 4.707031 -9.992188 5.101562 -10.054688 5.53125 -10.140625 C 5.96875 -10.234375 6.332031 -10.359375 6.625 -10.515625 C 6.914062 -10.671875 7.003906 -10.851562 6.890625 -11.0625 C 6.835938 -11.125 6.769531 -11.175781 6.6875 -11.21875 C 6.601562 -11.269531 6.515625 -11.304688 6.421875 -11.328125 C 6.003906 -11.328125 5.617188 -11.242188 5.265625 -11.078125 C 4.921875 -10.921875 4.585938 -10.722656 4.265625 -10.484375 Z M 4.265625 -10.484375 "/></g></g></g><g fill="#004aad" fill-opacity="1"><g transform="translate(330.694496, 292.179854)"><g/></g></g></svg>